<svg width="1440" height="900" viewBox="0 0 1440 900" fill="none" xmlns="http://www.w3.org/2000/svg">
<g filter="url(#filter0_f_1_4)">
<ellipse cx="585.214" cy="848.676" rx="268.698" ry="408.541" transform="rotate(-111.286 585.214 848.676)" fill="#FF91E2"/>
</g>
<mask id="mask0_1_4" style="mask-type:alpha" maskUnits="userSpaceOnUse" x="-126" y="-108" width="1405" height="1615">
<path d="M1278 218.5L399.256 -107.044L-69.2021 666.416L-125.5 915L281.157 1443.73L695.315 1506.02L1033.97 820.66L1278 218.5Z" fill="url(#paint0_linear_1_4)"/>
</mask>
<g mask="url(#mask0_1_4)">
<mask id="mask1_1_4" style="mask-type:alpha" maskUnits="userSpaceOnUse" x="-224" y="-148" width="1511" height="1708">
<path d="M648.604 1559.43C261.763 1367.63 -204.001 1081.55 -223.897 1073.27L386 -148L1286.5 212L648.604 1559.43Z" fill="url(#paint1_linear_1_4)"/>
</mask>
<g mask="url(#mask1_1_4)">
<path d="M150.994 698.527C217.233 564.474 411.56 520.268 535.85 581.683C660.14 643.097 796.434 777.958 725.366 921.786C690.148 993.06 730.471 1120.65 626.736 1174.75C521.136 1229.82 361.305 1126.46 298.607 1095.47C174.317 1034.06 84.7547 832.581 150.994 698.527Z" fill="#82E9FF"/>
<g filter="url(#filter1_f_1_4)">
<path d="M160.845 705.393C231.885 561.624 390.359 511.915 486.853 559.595C583.348 607.275 683.177 724.09 612.137 867.859C576.933 939.104 601.203 1058.72 511.326 1119.62C419.834 1181.62 297.909 1097 249.232 1072.94C152.738 1025.26 89.8058 849.162 160.845 705.393Z" fill="#82E9FF"/>
</g>
<g filter="url(#filter2_f_1_4)">
<path d="M162.997 701.042C242.618 539.904 432.504 490.252 551.655 549.127C670.805 608.002 797.127 746.06 717.506 907.198C678.049 987.05 723.989 1130.38 617.777 1195.93C509.657 1262.66 347.924 1155.42 287.818 1125.72C168.668 1066.85 83.3749 862.179 162.997 701.042Z" fill="#82E9FF"/>
</g>
<g filter="url(#filter3_f_1_4)">
<path d="M211.135 701.612C341.748 518.629 594.01 438.25 748.165 514.421C902.321 590.593 1019.08 773.915 923.586 967.167C876.266 1062.93 983.448 1269.06 850.461 1344.91C715.086 1422.12 439.205 1271.52 361.441 1233.1C207.286 1156.92 59.8274 913.586 211.135 701.612Z" fill="#82E9FF"/>
</g>
<g filter="url(#filter4_f_1_4)">
<path d="M275.954 668.806C378.772 460.724 673.246 364.866 823.964 439.339C974.683 513.813 1083.89 703.047 981.077 911.13C930.125 1014.24 925.781 1167.87 790.191 1253.29C652.166 1340.25 309.603 1246.64 233.572 1209.07C82.8537 1134.6 173.136 876.888 275.954 668.806Z" fill="#82E9FF"/>
</g>
<g filter="url(#filter5_f_1_4)">
<path d="M383.476 602.685C489.729 387.651 784.344 302.908 938.5 379.079C1092.66 455.251 1203.79 649.954 1097.53 864.988C1044.88 971.548 757.712 1027.6 618.389 1116.27C476.563 1206.54 280.794 1073.34 203.03 1034.92C48.8748 958.748 277.223 817.719 383.476 602.685Z" fill="#82E9FF"/>
</g>
<g filter="url(#filter6_f_1_4)">
<path d="M279.045 752.308C372.016 564.153 655.197 502.55 809.353 578.722C963.508 654.893 1081.58 835.551 988.609 1023.71C942.537 1116.95 927.603 1250.42 796.1 1323.26C662.234 1397.42 464.655 1267.89 386.891 1229.46C232.736 1153.29 186.073 940.462 279.045 752.308Z" fill="#82E9FF"/>
</g>
</g>
</g>
<mask id="mask2_1_4" style="mask-type:alpha" maskUnits="userSpaceOnUse" x="132" y="232" width="1696" height="1182">
<path d="M132.476 1229.76C182.937 800.938 247.395 253.918 248.213 232.365L1827.74 415.653L1712 1413.04L132.476 1229.76Z" fill="url(#paint2_linear_1_4)"/>
</mask>
<g mask="url(#mask2_1_4)">
<path d="M963.367 492.773C1141.52 513.446 1273.48 684.433 1257.5 822.144C1241.52 959.855 1148.43 1132.21 957.29 1110.03C862.571 1099.04 736.882 1177.75 632.306 1096.11C525.85 1013.01 573.693 828.212 581.754 758.743C597.734 621.032 785.217 472.101 963.367 492.773Z" fill="#82E9FF"/>
<g filter="url(#filter7_f_1_4)">
<path d="M959.862 504.32C1150.92 526.491 1272.34 674.393 1258.61 792.765C1244.87 911.137 1154.76 1058.11 963.695 1035.94C869.015 1024.96 744.516 1093.82 638.868 1021.82C531.322 948.53 576.093 790.107 583.022 730.394C596.758 612.022 768.801 482.149 959.862 504.32Z" fill="#82E9FF"/>
</g>
<g filter="url(#filter8_f_1_4)">
<path d="M965.651 504.994C1179.79 529.843 1314.16 710.409 1297.23 856.347C1280.29 1002.29 1177.27 1184.43 963.131 1159.58C857.013 1147.26 714.827 1247.26 597.182 1159.96C477.424 1071.08 531.137 863.084 539.679 789.465C556.614 643.527 751.508 480.145 965.651 504.994Z" fill="#82E9FF"/>
</g>
<g filter="url(#filter9_f_1_4)">
<path d="M988.36 525.145C1248.6 591.622 1445.63 806.317 1425.81 977.118C1405.99 1147.92 1250.37 1316.99 993.552 1287.19C866.285 1272.42 681.079 1439.59 539.743 1336.99C395.869 1232.55 457.9 1003.66 467.899 917.497C487.718 746.696 686.892 448.135 988.36 525.145Z" fill="#82E9FF"/>
</g>
<g filter="url(#filter10_f_1_4)">
<path d="M1069.42 604.606C1345.95 636.694 1558.47 884.381 1539.1 1051.37C1519.72 1218.37 1354.28 1382.13 1077.75 1350.04C940.715 1334.14 766.935 1378.57 613.777 1276.51C457.867 1172.63 521.981 949.243 531.756 865.002C551.134 698.009 792.887 572.517 1069.42 604.606Z" fill="#82E9FF"/>
</g>
<g filter="url(#filter11_f_1_4)">
<path d="M1169.31 683.752C1455.08 716.913 1674.98 970.54 1655.16 1141.34C1635.34 1312.14 1464.59 1479.46 1178.82 1446.3C1037.21 1429.87 857.705 1475.1 699.328 1370.52C538.105 1264.06 604.081 1035.63 614.079 949.47C633.899 778.668 883.541 650.592 1169.31 683.752Z" fill="#82E9FF"/>
</g>
<g filter="url(#filter12_f_1_4)">
<path d="M957.525 631.65C1207.57 660.665 1396.72 910.724 1376.9 1081.53C1357.08 1252.33 1205 1421.81 954.952 1392.8C831.042 1378.42 675.319 1406.39 537.972 1304.25C398.158 1200.28 459.266 971.284 469.264 885.122C489.084 714.321 707.477 602.635 957.525 631.65Z" fill="#82E9FF"/>
</g>
</g>
<g filter="url(#filter13_f_1_4)">
<ellipse cx="778.628" cy="894.216" rx="176.221" ry="267.934" transform="rotate(35.5573 778.628 894.216)" fill="#FF91E2"/>
</g>
<mask id="mask3_1_4" style="mask-type:alpha" maskUnits="userSpaceOnUse" x="249" y="254" width="1102" height="1504">
<path d="M249.215 367.974C688.472 315.711 1167.93 258.85 1189.63 254.801L1350.86 1644.02L410.441 1757.19L249.215 367.974Z" fill="url(#paint3_linear_1_4)"/>
</mask>
<g mask="url(#mask3_1_4)">
<path d="M1146.1 871.258C1157.81 968.62 1066.97 1062.6 976.704 1073.46C886.434 1084.32 763.228 1059.17 750.657 954.706C744.427 902.941 676.52 847.35 714.071 780.439C752.297 712.326 877.127 711.745 922.664 706.265C1012.93 695.402 1134.38 773.897 1146.1 871.258Z" fill="#91ECFF"/>
<g filter="url(#filter14_f_1_4)">
<path d="M1138.22 871.023C1150.79 975.44 1081.61 1059.58 1011.53 1068.01C941.445 1076.44 844.733 1048.12 832.167 943.699C825.94 891.955 769.709 834.985 797.21 769.309C825.205 702.453 922.502 705.18 957.855 700.925C1027.94 692.491 1125.66 766.605 1138.22 871.023Z" fill="#91ECFF"/>
</g>
<g filter="url(#filter15_f_1_4)">
<path d="M1138.6 874.183C1152.69 991.215 1066.24 1086.59 979.704 1097C893.167 1107.42 774.289 1076.93 760.205 959.896C753.226 901.901 676.591 839.687 711.393 765.598C746.82 690.178 874.085 691.042 917.738 685.789C1004.28 675.375 1124.52 757.151 1138.6 874.183Z" fill="#91ECFF"/>
</g>
<g filter="url(#filter16_f_1_4)">
<path d="M1111.97 891.137C1105.89 1038.45 996.221 1173.07 884.26 1186.55C772.299 1200.02 642.438 1141.25 625.547 1000.89C617.176 931.337 484.391 856.61 530.201 767.265C576.833 676.315 782.322 660.041 838.801 653.244C950.762 639.77 1119.01 720.48 1111.97 891.137Z" fill="#91ECFF"/>
</g>
<g filter="url(#filter17_f_1_4)">
<path d="M1088.15 932.4C1106.33 1083.53 979.039 1241.78 869.575 1254.96C760.11 1268.13 632.269 1203.41 614.082 1052.28C605.069 977.389 552.351 891.485 596.154 795.948C640.744 698.695 862.404 627.213 917.624 620.567C1027.09 607.394 1069.96 781.272 1088.15 932.4Z" fill="#91ECFF"/>
</g>
<g filter="url(#filter18_f_1_4)">
<path d="M1052.83 1007.27C1071.63 1163.45 940.266 1315.65 828.305 1329.13C716.344 1342.6 585.488 1275.56 566.693 1119.39C557.379 1041.99 694.94 908.209 739.629 809.55C785.12 709.119 940.383 712.026 996.861 705.229C1108.82 691.755 1034.04 851.095 1052.83 1007.27Z" fill="#91ECFF"/>
</g>
<g filter="url(#filter19_f_1_4)">
<path d="M1056.5 887.662C1072.94 1024.32 939.561 1159.72 827.601 1173.19C715.64 1186.66 586.011 1129.83 569.566 993.172C561.416 925.453 521.739 846.814 567.811 759.649C614.711 670.918 769.653 671.164 826.131 664.368C938.092 650.894 1040.05 751.008 1056.5 887.662Z" fill="#91ECFF"/>
</g>
</g>
<defs>
<filter id="filter0_f_1_4" x="-56.3864" y="309.097" width="1283.2" height="1079.16" filterUnits="userSpaceOnUse" color-interpolation-filters="sRGB">
<feFlood flood-opacity="0" result="BackgroundImageFix"/>
<feBlend mode="normal" in="SourceGraphic" in2="BackgroundImageFix" result="shape"/>
<feGaussianBlur stdDeviation="124.268" result="effect1_foregroundBlur_1_4"/>
</filter>
<filter id="filter1_f_1_4" x="120.429" y="532.097" width="525.685" height="619.731" filterUnits="userSpaceOnUse" color-interpolation-filters="sRGB">
<feFlood flood-opacity="0" result="BackgroundImageFix"/>
<feBlend mode="normal" in="SourceGraphic" in2="BackgroundImageFix" result="shape"/>
<feGaussianBlur stdDeviation="4.97072" result="effect1_foregroundBlur_1_4"/>
</filter>
<filter id="filter2_f_1_4" x="97.1952" y="490.437" width="680.024" height="761.781" filterUnits="userSpaceOnUse" color-interpolation-filters="sRGB">
<feFlood flood-opacity="0" result="BackgroundImageFix"/>
<feBlend mode="normal" in="SourceGraphic" in2="BackgroundImageFix" result="shape"/>
<feGaussianBlur stdDeviation="17.3975" result="effect1_foregroundBlur_1_4"/>
</filter>
<filter id="filter3_f_1_4" x="98.0221" y="436.087" width="909.825" height="980.235" filterUnits="userSpaceOnUse" color-interpolation-filters="sRGB">
<feFlood flood-opacity="0" result="BackgroundImageFix"/>
<feBlend mode="normal" in="SourceGraphic" in2="BackgroundImageFix" result="shape"/>
<feGaussianBlur stdDeviation="24.8536" result="effect1_foregroundBlur_1_4"/>
</filter>
<filter id="filter4_f_1_4" x="19.4076" y="280.065" width="1136.15" height="1143.33" filterUnits="userSpaceOnUse" color-interpolation-filters="sRGB">
<feFlood flood-opacity="0" result="BackgroundImageFix"/>
<feBlend mode="normal" in="SourceGraphic" in2="BackgroundImageFix" result="shape"/>
<feGaussianBlur stdDeviation="67.1047" result="effect1_foregroundBlur_1_4"/>
</filter>
<filter id="filter5_f_1_4" x="-181.879" y="18.5783" width="1654.42" height="1461.52" filterUnits="userSpaceOnUse" color-interpolation-filters="sRGB">
<feFlood flood-opacity="0" result="BackgroundImageFix"/>
<feBlend mode="normal" in="SourceGraphic" in2="BackgroundImageFix" result="shape"/>
<feGaussianBlur stdDeviation="166.519" result="effect1_foregroundBlur_1_4"/>
</filter>
<filter id="filter6_f_1_4" x="77.2657" y="392.803" width="1098.34" height="1107.07" filterUnits="userSpaceOnUse" color-interpolation-filters="sRGB">
<feFlood flood-opacity="0" result="BackgroundImageFix"/>
<feBlend mode="normal" in="SourceGraphic" in2="BackgroundImageFix" result="shape"/>
<feGaussianBlur stdDeviation="77.0461" result="effect1_foregroundBlur_1_4"/>
</filter>
<filter id="filter7_f_1_4" x="557.972" y="491.886" width="711.63" height="573.175" filterUnits="userSpaceOnUse" color-interpolation-filters="sRGB">
<feFlood flood-opacity="0" result="BackgroundImageFix"/>
<feBlend mode="normal" in="SourceGraphic" in2="BackgroundImageFix" result="shape"/>
<feGaussianBlur stdDeviation="4.97072" result="effect1_foregroundBlur_1_4"/>
</filter>
<filter id="filter8_f_1_4" x="485.513" y="467.676" width="847.944" height="763.195" filterUnits="userSpaceOnUse" color-interpolation-filters="sRGB">
<feFlood flood-opacity="0" result="BackgroundImageFix"/>
<feBlend mode="normal" in="SourceGraphic" in2="BackgroundImageFix" result="shape"/>
<feGaussianBlur stdDeviation="17.3975" result="effect1_foregroundBlur_1_4"/>
</filter>
<filter id="filter9_f_1_4" x="396.352" y="462.987" width="1080.54" height="957.218" filterUnits="userSpaceOnUse" color-interpolation-filters="sRGB">
<feFlood flood-opacity="0" result="BackgroundImageFix"/>
<feBlend mode="normal" in="SourceGraphic" in2="BackgroundImageFix" result="shape"/>
<feGaussianBlur stdDeviation="24.8536" result="effect1_foregroundBlur_1_4"/>
</filter>
<filter id="filter10_f_1_4" x="376.238" y="465.366" width="1298.29" height="1022.94" filterUnits="userSpaceOnUse" color-interpolation-filters="sRGB">
<feFlood flood-opacity="0" result="BackgroundImageFix"/>
<feBlend mode="normal" in="SourceGraphic" in2="BackgroundImageFix" result="shape"/>
<feGaussianBlur stdDeviation="67.1047" result="effect1_foregroundBlur_1_4"/>
</filter>
<filter id="filter11_f_1_4" x="259.247" y="345.463" width="1730.19" height="1438.11" filterUnits="userSpaceOnUse" color-interpolation-filters="sRGB">
<feFlood flood-opacity="0" result="BackgroundImageFix"/>
<feBlend mode="normal" in="SourceGraphic" in2="BackgroundImageFix" result="shape"/>
<feGaussianBlur stdDeviation="166.519" result="effect1_foregroundBlur_1_4"/>
</filter>
<filter id="filter12_f_1_4" x="293.31" y="472.976" width="1239.11" height="1077.17" filterUnits="userSpaceOnUse" color-interpolation-filters="sRGB">
<feFlood flood-opacity="0" result="BackgroundImageFix"/>
<feBlend mode="normal" in="SourceGraphic" in2="BackgroundImageFix" result="shape"/>
<feGaussianBlur stdDeviation="77.0461" result="effect1_foregroundBlur_1_4"/>
</filter>
<filter id="filter13_f_1_4" x="403.901" y="490.301" width="749.454" height="807.83" filterUnits="userSpaceOnUse" color-interpolation-filters="sRGB">
<feFlood flood-opacity="0" result="BackgroundImageFix"/>
<feBlend mode="normal" in="SourceGraphic" in2="BackgroundImageFix" result="shape"/>
<feGaussianBlur stdDeviation="81.4988" result="effect1_foregroundBlur_1_4"/>
</filter>
<filter id="filter14_f_1_4" x="783.162" y="693.752" width="363.069" height="382.175" filterUnits="userSpaceOnUse" color-interpolation-filters="sRGB">
<feFlood flood-opacity="0" result="BackgroundImageFix"/>
<feBlend mode="normal" in="SourceGraphic" in2="BackgroundImageFix" result="shape"/>
<feGaussianBlur stdDeviation="3.25995" result="effect1_foregroundBlur_1_4"/>
</filter>
<filter id="filter15_f_1_4" x="679.553" y="662.076" width="483.386" height="459.649" filterUnits="userSpaceOnUse" color-interpolation-filters="sRGB">
<feFlood flood-opacity="0" result="BackgroundImageFix"/>
<feBlend mode="normal" in="SourceGraphic" in2="BackgroundImageFix" result="shape"/>
<feGaussianBlur stdDeviation="11.4098" result="effect1_foregroundBlur_1_4"/>
</filter>
<filter id="filter16_f_1_4" x="488.014" y="619.197" width="656.768" height="601.825" filterUnits="userSpaceOnUse" color-interpolation-filters="sRGB">
<feFlood flood-opacity="0" result="BackgroundImageFix"/>
<feBlend mode="normal" in="SourceGraphic" in2="BackgroundImageFix" result="shape"/>
<feGaussianBlur stdDeviation="16.2998" result="effect1_foregroundBlur_1_4"/>
</filter>
<filter id="filter17_f_1_4" x="490.957" y="531.843" width="686.956" height="812.799" filterUnits="userSpaceOnUse" color-interpolation-filters="sRGB">
<feFlood flood-opacity="0" result="BackgroundImageFix"/>
<feBlend mode="normal" in="SourceGraphic" in2="BackgroundImageFix" result="shape"/>
<feGaussianBlur stdDeviation="44.0093" result="effect1_foregroundBlur_1_4"/>
</filter>
<filter id="filter18_f_1_4" x="347.825" y="486.014" width="930.701" height="1063.22" filterUnits="userSpaceOnUse" color-interpolation-filters="sRGB">
<feFlood flood-opacity="0" result="BackgroundImageFix"/>
<feBlend mode="normal" in="SourceGraphic" in2="BackgroundImageFix" result="shape"/>
<feGaussianBlur stdDeviation="109.208" result="effect1_foregroundBlur_1_4"/>
</filter>
<filter id="filter19_f_1_4" x="444.859" y="562.094" width="714.082" height="714.082" filterUnits="userSpaceOnUse" color-interpolation-filters="sRGB">
<feFlood flood-opacity="0" result="BackgroundImageFix"/>
<feBlend mode="normal" in="SourceGraphic" in2="BackgroundImageFix" result="shape"/>
<feGaussianBlur stdDeviation="50.5292" result="effect1_foregroundBlur_1_4"/>
</filter>
<linearGradient id="paint0_linear_1_4" x1="457.501" y1="580.684" x2="276.516" y2="1037.83" gradientUnits="userSpaceOnUse">
<stop stop-color="#C4C4C4"/>
<stop offset="0.943414" stop-color="#C4C4C4" stop-opacity="0"/>
</linearGradient>
<linearGradient id="paint1_linear_1_4" x1="295.075" y1="772.053" x2="776.967" y2="1076.54" gradientUnits="userSpaceOnUse">
<stop stop-color="#C4C4C4"/>
<stop offset="1" stop-color="#C4C4C4" stop-opacity="0"/>
</linearGradient>
<linearGradient id="paint2_linear_1_4" x1="890.285" y1="467.001" x2="830.806" y2="1176.07" gradientUnits="userSpaceOnUse">
<stop stop-color="#C4C4C4"/>
<stop offset="1" stop-color="#C4C4C4" stop-opacity="0"/>
</linearGradient>
<linearGradient id="paint3_linear_1_4" x1="993.627" y1="845.198" x2="409.701" y2="854.068" gradientUnits="userSpaceOnUse">
<stop stop-color="#C4C4C4"/>
<stop offset="1" stop-color="#C4C4C4" stop-opacity="0"/>
</linearGradient>
</defs>
</svg>
