<?xml version="1.0" encoding="UTF-8"?>
<svg id="Capa_2" xmlns="http://www.w3.org/2000/svg" xmlns:xlink="http://www.w3.org/1999/xlink" viewBox="0 0 751.11 254.17">
  <defs>
    <style>
      .cls-1 {
        opacity: .3;
      }

      .cls-2 {
        fill: none;
      }

      .cls-3 {
        fill: #47c1ff;
        font-family: IndigoRegular-Regular, 'Indigo Regular';
        font-size: 30px;
      }

      .cls-4 {
        opacity: .1;
      }

      .cls-5 {
        fill: #84ceda;
      }

      .cls-6 {
        clip-path: url(#clippath);
      }
    </style>
    <clipPath id="clippath">
      <rect class="cls-2" width="751.11" height="254.17"/>
    </clipPath>
  </defs>
  <g id="object">
    <g class="cls-6">
      <g>
        <g class="cls-4">
          <path class="cls-2" d="M586.47,153.48l27.81,14.74c-.28.79-.33,1.66-.1,2.53.04.15.09.29.14.43l-86.72,48.75s-.07-.08-.1-.12l58.97-66.33Z"/>
          <path class="cls-2" d="M625.14,106.1c.03.12.07.24.11.35l-50.9,35.3c-.38-.41-.84-.73-1.34-.96l16.17-55.67,36.17,18.18c-.37.85-.47,1.83-.21,2.8Z"/>
          <path class="cls-2" d="M614.88,167.11l-27.54-14.59,39.27-44.17c.35.28.75.51,1.17.67l-9.37,56.35c-.39,0-.78.04-1.17.14-.99.26-1.8.84-2.36,1.61Z"/>
          <path class="cls-2" d="M460.14,107.71l.62,15.24,2.79,68.8c-.1.02-.2.04-.3.06-.66.17-1.24.5-1.72.92l-41.33-35.28,38.27-50.28c.5.29,1.07.47,1.66.54Z"/>
          <path class="cls-2" d="M465.06,191.73c-.08-.01-.16-.02-.25-.03l-2.81-69.14-.6-14.89c.11-.02.21-.04.32-.07,1.2-.32,2.15-1.12,2.69-2.14l25.48,9.52-24.83,76.76Z"/>
          <path class="cls-2" d="M567.02,143.8c-.14.64-.13,1.32.05,1.99.02.06.04.11.05.17l-99.21,47.6c-.42-.62-.99-1.11-1.65-1.44l24.81-76.7,75.95,28.38Z"/>
          <path class="cls-2" d="M513.44,50.63c.4-.11.77-.27,1.11-.47l53.96,91.2c-.43.35-.79.78-1.05,1.26l-76-28.4,20.53-63.46c.48.04.96,0,1.45-.12Z"/>
          <path class="cls-2" d="M153.82,162.18c.25-.02.51-.06.76-.13.77-.2,1.44-.61,1.96-1.14l31.65,20.4-42.96,72.53c-.18-.08-.37-.14-.57-.19l9.15-91.48Z"/>
          <path class="cls-2" d="M151.56,161.74c.32.16.65.28,1.01.36l-9.15,91.44c-.3.01-.59.06-.89.14-.56.15-1.07.4-1.5.73l-36.23-35.33,46.77-57.34Z"/>
          <path class="cls-2" d="M41.71,161.03l-30.86-5.62,14.89-37.65c.59.18,1.22.24,1.86.15l16.03,40.78c-.92.53-1.59,1.36-1.93,2.34Z"/>
          <path class="cls-2" d="M464.59,214.91l16.56-10.79,38.92,17.3s-.03.08-.04.13l-55.05-5.09c-.02-.29-.06-.57-.14-.86-.06-.24-.15-.47-.25-.69Z"/>
          <path class="cls-2" d="M303.81,227.28l26.28-67.03,66.65,20.76c-.09.57-.07,1.17.09,1.76.02.08.05.15.07.22l-91.71,45.56c-.37-.52-.84-.96-1.38-1.27Z"/>
          <path class="cls-2" d="M403.05,177.91c-.93-.51-2.06-.69-3.17-.39-.18.05-.36.11-.53.18l-43.94-73.8s.04-.04.07-.07l63.01,53.8-15.44,20.28Z"/>
          <path class="cls-2" d="M568.01,147.54c.15.17.31.32.48.46l-42.63,70.61c-.84-.35-1.8-.44-2.75-.19-1.09.29-1.96.97-2.52,1.85l-38.17-16.97,85.6-55.76Z"/>
          <path class="cls-2" d="M625.18,108.04l-38.99,43.86-10.91-5.78c.28-.79.33-1.66.1-2.53-.07-.28-.18-.55-.3-.8l50.1-34.75Z"/>
          <path class="cls-2" d="M571.8,140.43c-.54-.07-1.11-.05-1.68.1-.18.05-.35.11-.52.18l-54.06-91.37c.25-.28.46-.59.63-.93l71.86,36.13-16.23,55.89Z"/>
          <path class="cls-2" d="M516.57,47.2c.04-.25.06-.5.06-.75l7.55-.44,72.59-4.24c.02.2.06.4.11.6.36,1.37,1.34,2.4,2.56,2.89l-11.05,38.05-71.82-36.1Z"/>
          <path class="cls-2" d="M404.98,183.21l55.09,12.43c-.03.46,0,.94.13,1.42.38,1.45,1.47,2.53,2.79,2.97l-2.19,12.37c-.4-.01-.81.03-1.22.14-.92.24-1.69.77-2.24,1.46l-52.39-30.74s.01-.04.02-.05Z"/>
          <path class="cls-2" d="M49.26,164.93c.43-.6.7-1.3.78-2.05l99.31-3.83c.21.77.63,1.44,1.17,1.96l-46.64,57.19-54.63-53.26Z"/>
          <path class="cls-2" d="M351.75,104.99c.59.1,1.21.09,1.82-.08.28-.07.54-.17.79-.3l43.9,73.72c-.49.4-.88.9-1.15,1.46l-66.56-20.74,21.2-54.07Z"/>
          <path class="cls-2" d="M460.72,193.69c-.14.23-.27.47-.36.73l-55.1-12.43c.03-.46,0-.94-.13-1.42-.2-.74-.58-1.39-1.08-1.9l15.39-20.22,41.27,35.24Z"/>
          <path class="cls-2" d="M462.05,212.63l2.19-12.37c.4.01.81-.03,1.22-.14,1.09-.29,1.96-.97,2.52-1.85l11.8,5.25-15.88,10.34c-.5-.56-1.14-.99-1.85-1.23Z"/>
          <path class="cls-2" d="M468.49,197.11c.2-.71.22-1.48.02-2.25-.02-.06-.04-.11-.05-.17l94.3-45.24-81.72,53.23-12.55-5.58Z"/>
          <path class="cls-2" d="M569.57,148.65c.84.35,1.8.44,2.75.19.99-.26,1.8-.84,2.36-1.61l10.64,5.64-57.03,64.15,41.28-68.37Z"/>
          <path class="cls-2" d="M-6.65,153.51l15.75,2.87-20.67,52.25c-.23-.05-.47-.09-.71-.1l2.14-51.71c.13-.02.26-.05.39-.08,1.61-.43,2.76-1.71,3.09-3.22Z"/>
          <path class="cls-2" d="M101.54,159.63l-51.55,1.99c-.02-.1-.04-.2-.06-.3-.59-2.25-2.87-3.6-5.12-3.08l-15.99-40.68c.8-.37,1.45-.98,1.88-1.71l118.53,41.55c-.02.13-.03.26-.03.39l-47.66,1.84Z"/>
          <path class="cls-2" d="M9.58,155.18l-16.14-2.94c-.02-.25-.06-.51-.13-.76-.16-.6-.44-1.14-.81-1.6l31.85-32.85c.08.06.16.13.25.18l-15.02,37.96Z"/>
          <path class="cls-2" d="M67.33,257.57c-.23.62-.32,1.3-.25,1.98l-80.76,21.37,27.05-53.29,53.96,29.94Z"/>
          <path class="cls-2" d="M74.52,256.19l29.47-36.13,36.15,35.25c-.41.57-.68,1.25-.78,1.96l-63.78,1.11c-.02-.13-.05-.26-.08-.39-.18-.69-.53-1.3-.98-1.79Z"/>
          <path class="cls-2" d="M350.55,104.59l-21.21,54.09-25.85-8.05c.09-.57.07-1.17-.09-1.76-.13-.48-.34-.92-.6-1.31l47.09-43.38c.21.16.43.29.66.41Z"/>
          <path class="cls-2" d="M626.02,102.22l-36.48-18.34,11.13-38.34c.48.04.97,0,1.46-.12.16-.04.32-.1.48-.16l24.47,56.05c-.41.24-.76.55-1.06.9Z"/>
          <path class="cls-2" d="M189.26,182l27.15,17.5c-.42.88-.54,1.91-.27,2.92.08.3.19.58.32.84l-69.8,51.53c-.11-.11-.22-.21-.33-.3l42.93-72.49Z"/>
          <path class="cls-2" d="M457.49,106.39l-38.24,50.24-63.01-53.8c.24-.44.4-.91.48-1.41l99.63,2.46c.02.22.06.44.12.66.19.72.55,1.34,1.03,1.85Z"/>
          <path class="cls-2" d="M510.76,50.46l-20.48,63.31-25.45-9.51c.12-.62.11-1.27-.06-1.92-.17-.64-.48-1.2-.88-1.67l46.12-50.58c.23.15.48.28.74.38Z"/>
          <path class="cls-2" d="M70.87,254.82l-23.4-88.46c.33-.14.63-.31.9-.52l54.71,53.34-29.54,36.21c-.79-.47-1.72-.68-2.67-.57Z"/>
          <path class="cls-2" d="M224.17,199.47l26-16.88,48,45.93c-.1.14-.18.28-.26.43l-73.38-26.83c.11-.61.1-1.25-.07-1.89-.07-.27-.17-.52-.28-.76Z"/>
          <path class="cls-2" d="M207.53,148.68l-18.68,31.55-31.55-20.34c.32-.61.5-1.31.49-2.02l47.37-11.63c.43,1.14,1.31,2,2.38,2.44Z"/>
          <path class="cls-2" d="M41.48,162.28c-.01.41.03.82.14,1.24.11.43.29.83.52,1.19l-52.06,44.71c-.15-.12-.31-.23-.47-.32l20.76-52.49,31.11,5.66Z"/>
          <path class="cls-2" d="M44.41,166.49c.58.19,1.2.26,1.83.19l23.4,88.46c-.69.3-1.27.76-1.71,1.33l-54-29.96,30.47-60.02Z"/>
          <path class="cls-2" d="M-8.44,214.08c.23-.74.27-1.56.05-2.37-.12-.44-.3-.84-.52-1.2l51.89-44.85c.1.09.21.17.31.25l-30.45,59.98-21.28-11.81Z"/>
          <path class="cls-2" d="M-12.08,217.08c.21-.02.43-.06.64-.11,1.04-.28,1.89-.92,2.45-1.75l21.26,11.8-26.42,52.05,2.07-61.99Z"/>
          <path class="cls-2" d="M296.03,152.82c.7.79,1.66,1.3,2.71,1.42l2.17,72.54c-.11.02-.23.04-.34.07-.58.15-1.09.41-1.53.76l-47.78-45.73,44.77-29.07Z"/>
          <path class="cls-2" d="M302.63,226.82c-.15-.03-.3-.06-.46-.08l-.28-9.4-1.89-63.14c.11-.02.23-.04.34-.07,1.26-.33,2.24-1.2,2.77-2.29l25.77,8.03-26.25,66.95Z"/>
          <path class="cls-2" d="M295.09,151.07c.06.24.15.47.25.68l-45.02,29.23-36.96-35.37c.05-.21.08-.43.09-.65l50.33,3.31,31.19,2.05c.02.25.06.5.12.75Z"/>
          <path class="cls-2" d="M223.46,198.42c-.82-.89-1.99-1.4-3.23-1.38l-3.57-21.82-4.49-27.44c.27-.27.51-.57.7-.89l36.36,34.8-25.77,16.73Z"/>
          <path class="cls-2" d="M208.81,149c.48.04.96,0,1.45-.12.27-.07.52-.17.76-.28l4.38,26.74,3.59,21.92c-.74.24-1.38.66-1.87,1.21l-27.21-17.54,18.9-31.92Z"/>
          <path class="cls-5" d="M628.25,100.83l-24.54-56.2c1.29-1.03,1.93-2.76,1.48-4.46-.61-2.29-2.96-3.66-5.25-3.05-1.66.44-2.83,1.8-3.12,3.38l-80.37,4.7c-.68-2.18-2.96-3.46-5.19-2.87-2.29.61-3.66,2.96-3.05,5.25.17.64.48,1.2.88,1.68l-46.12,50.58c-.98-.63-2.21-.87-3.43-.55-1.64.43-2.81,1.77-3.11,3.33l-99.68-2.47c-.02-.16-.05-.33-.1-.49-.61-2.29-2.96-3.66-5.25-3.05-2.29.61-3.66,2.96-3.05,5.25.14.53.38,1.01.68,1.43l-47.06,43.35c-1.03-.83-2.42-1.18-3.79-.81-1.61.43-2.76,1.72-3.1,3.24l-81.72-5.37s0-.05-.02-.07c-.61-2.29-2.96-3.66-5.25-3.05-2.02.54-3.32,2.43-3.19,4.44l-47.3,11.62c-.68-2.18-2.96-3.46-5.19-2.87-1.31.35-2.32,1.27-2.83,2.42L31.17,114.68c.16-.67.17-1.39-.02-2.11-.61-2.29-2.96-3.66-5.25-3.05-2.29.61-3.66,2.96-3.05,5.25.13.5.35.95.63,1.36l-31.91,32.92c-.99-.67-2.26-.93-3.51-.6-2.29.61-3.66,2.96-3.05,5.25.46,1.73,1.92,2.94,3.59,3.16l-2.15,51.8s-.06.01-.09.02c-2.29.61-3.66,2.96-3.05,5.25.44,1.65,1.78,2.82,3.35,3.12l-2.26,67.69,1.16-2.29,81.85-21.66c.83,1.92,2.95,3.01,5.04,2.46,1.74-.46,2.94-1.92,3.16-3.59l63.78-1.11c.02.13.05.26.08.39.61,2.29,2.96,3.66,5.25,3.05,2.29-.61,3.66-2.96,3.05-5.25-.09-.33-.21-.63-.36-.91l69.78-51.51c1.05,1.09,2.64,1.6,4.2,1.18,1.22-.32,2.17-1.14,2.71-2.17l73.36,26.82c-.13.63-.12,1.3.05,1.96.61,2.29,2.96,3.66,5.25,3.05,2.29-.61,3.66-2.96,3.05-5.25-.02-.08-.05-.15-.07-.22l91.71-45.56c1,1.44,2.83,2.17,4.62,1.7.92-.24,1.69-.77,2.24-1.46l52.39,30.74c-.33.83-.42,1.77-.17,2.7.61,2.29,2.96,3.66,5.25,3.05,1.57-.42,2.71-1.66,3.07-3.13l55.05,5.09c.02.29.06.57.14.86.61,2.29,2.96,3.66,5.25,3.05,2.29-.61,3.66-2.96,3.05-5.25-.04-.15-.09-.29-.14-.43l86.72-48.75c1.03,1.32,2.78,1.97,4.49,1.52,2.29-.61,3.66-2.96,3.05-5.25-.39-1.47-1.49-2.55-2.83-2.99l9.36-56.29c.45.03.92,0,1.38-.13,2.29-.61,3.66-2.96,3.05-5.25-.6-2.28-2.92-3.64-5.2-3.07ZM599.44,45.26l-11.05,38.05-71.82-36.1c.04-.25.06-.5.06-.75l7.55-.44,72.59-4.24c.02.2.06.4.11.6.36,1.37,1.34,2.4,2.56,2.89ZM482.41,203.3l85.6-55.76c.15.17.31.32.48.46l-42.63,70.61c-.84-.35-1.8-.44-2.75-.19-1.09.29-1.96.97-2.52,1.85l-38.17-16.97ZM516.17,48.41l71.86,36.13-16.23,55.89c-.54-.07-1.11-.05-1.68.1-.18.05-.35.11-.52.18l-54.06-91.37c.25-.28.46-.59.63-.93ZM575.37,143.59c-.07-.28-.18-.55-.3-.8l50.1-34.75-38.99,43.86-10.91-5.78c.28-.79.33-1.66.1-2.53ZM585.32,152.88l-57.03,64.15,41.28-68.37c.84.35,1.8.44,2.75.19.99-.26,1.8-.84,2.36-1.61l10.64,5.64ZM481.04,202.69l-12.55-5.58c.2-.71.22-1.48.02-2.25-.02-.06-.04-.11-.05-.17l94.3-45.24-81.72,53.23ZM479.77,203.51l-15.88,10.34c-.5-.56-1.14-.99-1.85-1.23l2.19-12.37c.4.01.81-.03,1.22-.14,1.09-.29,1.96-.97,2.52-1.85l11.8,5.25ZM457.35,214.01l-52.39-30.74s.01-.04.02-.05l55.09,12.43c-.03.46,0,.94.13,1.42.38,1.45,1.47,2.53,2.79,2.97l-2.19,12.37c-.4-.01-.81.03-1.22.14-.92.24-1.69.77-2.24,1.46ZM397.11,179.8l-66.56-20.74,21.2-54.07c.59.1,1.21.09,1.82-.08.28-.07.54-.17.79-.3l43.9,73.72c-.49.4-.88.9-1.15,1.46ZM418.48,157.63l-15.44,20.28c-.93-.51-2.06-.69-3.17-.39-.18.05-.36.11-.53.18l-43.94-73.8s.04-.04.07-.07l63.01,53.8ZM419.44,158.45l41.27,35.24c-.14.23-.27.47-.36.73l-55.1-12.43c.03-.46,0-.94-.13-1.42-.2-.74-.58-1.39-1.08-1.9l15.39-20.22ZM420.21,157.44l38.27-50.28c.5.29,1.07.47,1.66.54l.62,15.24,2.79,68.8c-.1.02-.2.04-.3.06-.66.17-1.24.5-1.72.92l-41.33-35.28ZM464.41,105.45l25.48,9.52-24.83,76.76c-.08-.01-.16-.02-.25-.03l-2.81-69.14-.6-14.89c.11-.02.21-.04.32-.07,1.2-.32,2.15-1.12,2.69-2.14ZM491.07,115.41l75.95,28.38c-.14.64-.13,1.32.05,1.99.02.06.04.11.05.17l-99.21,47.6c-.42-.62-.99-1.11-1.65-1.44l24.81-76.7ZM491.46,114.21l20.53-63.46c.48.04.96,0,1.45-.12.4-.11.77-.27,1.11-.47l53.96,91.2c-.43.35-.79.78-1.05,1.26l-76-28.4ZM589.18,85.12l36.17,18.18c-.37.85-.47,1.83-.21,2.8.03.12.07.24.11.35l-50.9,35.3c-.38-.41-.84-.73-1.34-.96l16.17-55.67ZM618.41,165.36c-.39,0-.78.04-1.17.14-.99.26-1.8.84-2.36,1.61l-27.54-14.59,39.27-44.17c.35.28.75.51,1.17.67l-9.37,56.35ZM527.6,219.94s-.07-.08-.1-.12l58.97-66.33,27.81,14.74c-.28.79-.33,1.66-.1,2.53.04.15.09.29.14.43l-86.72,48.75ZM464.98,216.46c-.02-.29-.06-.57-.14-.86-.06-.24-.15-.47-.25-.69l16.56-10.79,38.92,17.3s-.03.08-.04.13l-55.05-5.09ZM305.19,228.55c-.37-.52-.84-.96-1.38-1.27l26.28-67.03,66.65,20.76c-.09.57-.07,1.17.09,1.76.02.08.05.15.07.22l-91.71,45.56ZM43.63,158.7c-.92.53-1.59,1.36-1.93,2.34l-30.86-5.62,14.89-37.65c.59.18,1.22.24,1.86.15l16.03,40.78ZM145.24,253.85c-.18-.08-.37-.14-.57-.19l9.15-91.48c.25-.02.51-.06.76-.13.77-.2,1.44-.61,1.96-1.14l31.65,20.4-42.96,72.53ZM141.02,254.41l-36.23-35.33,46.77-57.34c.32.16.65.28,1.01.36l-9.15,91.44c-.3.01-.59.06-.89.14-.56.15-1.07.4-1.5.73ZM103.88,218.19l-54.63-53.26c.43-.6.7-1.3.78-2.05l99.31-3.83c.21.77.63,1.44,1.17,1.96l-46.64,57.19ZM103.08,219.18l-29.54,36.21c-.79-.47-1.72-.68-2.67-.57l-23.4-88.46c.33-.14.63-.31.9-.52l54.71,53.34ZM13.95,226.51l30.47-60.02c.58.19,1.2.26,1.83.19l23.4,88.46c-.69.3-1.27.76-1.71,1.33l-54-29.96ZM12.84,225.89l-21.28-11.81c.23-.74.27-1.56.05-2.37-.12-.44-.3-.84-.52-1.2l51.89-44.85c.1.09.21.17.31.25l-30.45,59.98ZM12.27,227.02l-26.42,52.05,2.07-61.99c.21-.02.43-.06.64-.11,1.04-.28,1.89-.92,2.45-1.75l21.26,11.8ZM-10.39,209.1l20.76-52.49,31.11,5.66c-.01.41.03.82.14,1.24.11.43.29.83.52,1.19l-52.06,44.71c-.15-.12-.31-.23-.47-.32ZM157.78,157.87l47.37-11.63c.43,1.14,1.31,2,2.38,2.44l-18.68,31.55-31.55-20.34c.32-.61.5-1.31.49-2.02ZM249.23,181.69l-25.77,16.73c-.82-.89-1.99-1.4-3.23-1.38l-3.57-21.82-4.49-27.44c.27-.27.51-.57.7-.89l36.36,34.8ZM189.91,180.92l18.9-31.92c.48.04.96,0,1.45-.12.27-.07.52-.17.76-.28l4.38,26.74,3.59,21.92c-.74.24-1.38.66-1.87,1.21l-27.21-17.54ZM263.78,148.28l31.19,2.05c.02.25.06.5.12.75.06.24.15.47.25.68l-45.02,29.23-36.96-35.37c.05-.21.08-.43.09-.65l50.33,3.31ZM299.03,227.61l-47.78-45.73,44.77-29.07c.7.79,1.66,1.3,2.71,1.42l2.17,72.54c-.11.02-.23.04-.34.07-.58.15-1.09.41-1.53.76ZM303.11,151.84l25.77,8.03-26.25,66.95c-.15-.03-.3-.06-.46-.08l-.28-9.4-1.89-63.14c.11-.02.23-.04.34-.07,1.26-.33,2.24-1.2,2.77-2.29ZM224.51,202.12c.11-.61.1-1.25-.07-1.89-.07-.27-.17-.52-.28-.76l26-16.88,48,45.93c-.1.14-.18.28-.26.43l-73.38-26.83ZM146.66,254.8c-.11-.11-.22-.21-.33-.3l42.93-72.49,27.15,17.5c-.42.88-.54,1.91-.27,2.92.08.3.19.58.32.84l-69.8,51.53ZM75.58,258.38c-.02-.13-.05-.26-.08-.39-.18-.69-.53-1.3-.98-1.79l29.47-36.13,36.15,35.25c-.41.57-.68,1.25-.78,1.96l-63.78,1.11ZM-13.68,280.92l27.05-53.29,53.96,29.94c-.23.62-.32,1.3-.25,1.98l-80.76,21.37ZM-10.14,156.82c.13-.02.26-.05.39-.08,1.61-.43,2.76-1.71,3.09-3.22l15.75,2.87-20.67,52.25c-.23-.05-.47-.09-.71-.1l2.14-51.71ZM24.34,117.04c.08.06.16.13.25.18l-15.02,37.96-16.14-2.94c-.02-.25-.06-.51-.13-.76-.16-.6-.44-1.14-.81-1.6l31.85-32.85ZM149.23,157.4c-.02.13-.03.26-.03.39l-47.66,1.84-51.55,1.99c-.02-.1-.04-.2-.06-.3-.59-2.25-2.87-3.6-5.12-3.08l-15.99-40.68c.8-.37,1.45-.98,1.88-1.71l118.53,41.55ZM349.89,104.19c.21.16.43.29.66.41l-21.21,54.09-25.85-8.05c.09-.57.07-1.17-.09-1.76-.13-.48-.34-.92-.6-1.31l47.09-43.38ZM456.35,103.88c.02.22.06.44.12.66.19.72.55,1.34,1.03,1.85l-38.24,50.24-63.01-53.8c.24-.44.4-.91.48-1.41l99.63,2.46ZM510.02,50.08c.23.15.48.28.74.38l-20.48,63.31-25.45-9.51c.12-.62.11-1.27-.06-1.92-.17-.64-.48-1.2-.88-1.67l46.12-50.58ZM602.61,45.27l24.47,56.05c-.41.24-.76.55-1.06.9l-36.48-18.34,11.13-38.34c.48.04.97,0,1.46-.12.16-.04.32-.1.48-.16Z"/>
        </g>
        <g class="cls-1">
          <path class="cls-2" d="M14.77,255.13l-40.63-9.78c.1-1.1-.12-2.25-.7-3.29-.1-.18-.21-.35-.32-.51l95.44-91.31c.06.04.11.08.17.12L14.77,255.13Z"/>
          <path class="cls-2" d="M-26.25,246.98l40.24,9.68-35.93,69.76c-.55-.25-1.13-.41-1.73-.48l-6.54-75.56c.5-.12.99-.3,1.46-.57,1.18-.66,2.03-1.68,2.5-2.84Z"/>
          <path class="cls-2" d="M192.34,272.32l-5.82-19.39-26.29-87.56c.12-.06.24-.11.36-.18.79-.44,1.43-1.05,1.91-1.75l64.79,31.74-32.63,77.29c-.74-.21-1.53-.26-2.31-.15Z"/>
          <path class="cls-2" d="M158.29,165.89c.11,0,.22-.02.33-.04l26.42,87.99,5.69,18.95c-.13.06-.26.12-.38.19-1.44.81-2.4,2.15-2.75,3.64l-35.91-3.84,6.61-106.9Z"/>
          <path class="cls-2" d="M42.98,261.18c-.03-.87-.26-1.74-.72-2.55-.04-.07-.08-.13-.12-.2l111.89-93.95c.74.66,1.64,1.1,2.59,1.31l-6.6,106.83-107.04-11.44Z"/>
          <path class="cls-2" d="M568.3,101.19c-.32.11-.64.24-.94.42-.93.52-1.65,1.26-2.14,2.11l-47.44-15.79,31.31-107.45c.26.04.53.06.79.06l18.42,120.66Z"/>
          <path class="cls-2" d="M571.36,101.02c-.46-.1-.94-.15-1.41-.13l-18.41-120.61c.38-.12.75-.27,1.1-.47.67-.38,1.24-.87,1.69-1.44l58.25,33.48-41.22,89.17Z"/>
          <path class="cls-2" d="M712.86,65.68l41.55-2.96-6.73,53.33c-.82-.04-1.65.1-2.44.42l-34.07-47.16c1-.98,1.6-2.28,1.7-3.64Z"/>
          <path class="cls-2" d="M151.25,135.92l-17.74,19.34-55.76-9.41c0-.06,0-.12,0-.18l72.48-11.62c.11.36.27.72.46,1.06.16.29.35.55.55.8Z"/>
          <path class="cls-2" d="M353.94,66.97l-11.68,94.88-92.56-4.71c-.07-.76-.3-1.52-.7-2.23-.05-.09-.11-.18-.17-.26l102.9-88.85c.64.55,1.39.96,2.2,1.18Z"/>
          <path class="cls-2" d="M242.6,163.2c1.37.35,2.87.2,4.2-.54.22-.12.42-.26.62-.41l80.86,80.41s-.04.07-.06.11l-98.78-48.39,13.16-31.17Z"/>
          <path class="cls-2" d="M40.48,256.69c-.25-.17-.5-.31-.77-.44l31.53-104.88c1.2.18,2.46-.02,3.6-.66,1.3-.73,2.21-1.9,2.63-3.21l54.69,9.23-91.68,99.95Z"/>
          <path class="cls-2" d="M238.37,157.02l-74.95,2.19c-.11-.61-.31-1.21-.63-1.78-.97-1.74-2.72-2.77-4.57-2.9l-1.27-16.63c.52-.12,1.03-.31,1.52-.58,1.1-.62,1.92-1.55,2.4-2.62l77.52,22.24s0,.05-.01.08Z"/>
          <path class="cls-2" d="M701.87,63.16c-.36.91-.47,1.91-.33,2.89l-126.45,37.7c-.53-.92-1.28-1.64-2.15-2.13l41.11-88.93,87.82,50.47Z"/>
          <path class="cls-2" d="M332.63,240.05c-.79.06-1.58.29-2.32.7-.33.19-.64.4-.92.64l-80.78-80.33c.5-.68.84-1.45,1-2.26l92.44,4.71-9.42,76.54Z"/>
          <path class="cls-2" d="M163.23,161.94c.11-.34.19-.69.23-1.05l74.95-2.2c.11.61.31,1.21.63,1.78.5.89,1.2,1.59,2.01,2.08l-13.12,31.08-64.7-31.7Z"/>
          <path class="cls-2" d="M155.27,138.02l1.27,16.63c-.52.12-1.03.31-1.52.58-1.3.73-2.2,1.9-2.63,3.21l-16.91-2.85,17-18.54c.83.56,1.79.89,2.79.97Z"/>
          <path class="cls-2" d="M152.1,160.1c-.02.98.21,1.98.72,2.89.04.07.08.13.12.2l-106.34,89.3,87.52-95.42,17.98,3.03Z"/>
          <path class="cls-2" d="M38.1,255.77c-1.2-.18-2.46.02-3.6.66-1.18.66-2.03,1.68-2.5,2.84l-15.55-3.74,52.18-101.31-30.53,101.55Z"/>
          <path class="cls-2" d="M636.38,87.23l65.63-19.57c.06.12.12.25.18.37,1.51,2.7,4.88,3.69,7.6,2.28l33.99,47.04c-.91.75-1.54,1.73-1.85,2.81l-166.14-14.33c-.02-.17-.05-.35-.09-.52l60.68-18.09Z"/>
          <path class="cls-2" d="M756.11,62.6l21.73-1.55c.11.32.24.63.41.93.4.72.95,1.32,1.57,1.79l-30.12,52.76c-.13-.06-.25-.11-.38-.15l6.79-53.78Z"/>
          <path class="cls-2" d="M639.26-45.86l-25.97,56.18-58.12-33.41c.34-.87.47-1.83.35-2.77l81.66-22.47c.07.16.15.32.24.48.46.83,1.11,1.5,1.85,1.98Z"/>
          <path class="cls-2" d="M334.31,240.16l9.42-76.56,35.9,1.83c.07.76.3,1.52.7,2.23.32.58.74,1.07,1.21,1.49l-46.25,71.32c-.32-.13-.65-.23-.98-.31Z"/>
          <path class="cls-2" d="M516.18,87.4l-40.69-13.55c.24-1.27.06-2.63-.62-3.85-.2-.36-.43-.68-.69-.98l72.77-89.3c.17.1.35.19.53.28l-31.29,107.39Z"/>
          <path class="cls-2" d="M196.18,273.14l32.61-77.22,98.79,48.4c-.16.64-.22,1.31-.15,1.97l-128.94,29.71c-.1-.28-.22-.55-.37-.81-.48-.86-1.15-1.55-1.93-2.04Z"/>
          <path class="cls-2" d="M644.41-45.3l59.28,106.04c-.37.29-.71.61-.99.97l-87.95-50.55,26.04-56.32c1.16.34,2.43.31,3.62-.14Z"/>
          <path class="cls-2" d="M465.53,76.46l-27.87,30.29-76.88-43.23c.08-.21.14-.42.2-.64l103.23,10.29c.05.82.28,1.64.71,2.41.18.32.39.62.62.89Z"/>
          <path class="cls-2" d="M503.69,136.27l13.62-46.73,47.29,15.74c-.21.9-.21,1.84.04,2.76l-57.07,30.59c-.93-1.32-2.35-2.14-3.87-2.36Z"/>
          <path class="cls-2" d="M712.74,64.01c-.12-.53-.31-1.05-.59-1.55-.29-.52-.65-.97-1.06-1.36l52.2-74.68c.23.1.47.19.71.26l-9.39,74.35-41.88,2.98Z"/>
          <path class="cls-2" d="M707.58,59.56c-.81-.06-1.63.06-2.42.36l-59.28-106.04c.79-.61,1.39-1.4,1.76-2.27l79.33,20.71-19.38,87.24Z"/>
          <path class="cls-2" d="M759.85-19.09c-.05,1.03.17,2.09.71,3.06.29.52.66.98,1.07,1.37l-51.94,74.79c-.16-.08-.32-.15-.49-.21l19.37-87.18,31.27,8.17Z"/>
          <path class="cls-2" d="M388.51,160.16c-1.15-.78-2.57-1.12-3.96-.93l-26.72-92.57c.14-.06.28-.13.41-.21.69-.39,1.27-.89,1.72-1.48l76.53,43.04-47.99,52.15Z"/>
          <path class="cls-2" d="M355.6,67.17c.2,0,.41-.02.61-.05l3.46,12,23.26,80.57c-.14.06-.28.13-.41.2-1.51.85-2.49,2.28-2.8,3.85l-35.78-1.82,11.66-94.76Z"/>
          <path class="cls-2" d="M390.29,162.09c-.16-.29-.35-.55-.54-.8l48.26-52.44,59.2,33.29c.01.29.04.58.1.86l-65.82,12.35-40.78,7.65c-.11-.31-.24-.62-.41-.92Z"/>
          <path class="cls-2" d="M466.79,77.57c1.35.87,3.03,1.15,4.61.71l11.79,26.88,14.82,33.8c-.26.43-.47.9-.61,1.38l-58.25-32.76,27.62-30.02Z"/>
          <path class="cls-2" d="M501.93,136.3c-.62.11-1.24.31-1.82.64-.32.18-.61.39-.88.61l-14.45-32.94-11.84-27c.88-.55,1.55-1.3,2.01-2.17l40.77,13.57-13.78,47.29Z"/>
          <path class="cls-5" d="M-21.58,336.62l50.1,64.18c-1.32,1.75-1.57,4.18-.43,6.22,1.54,2.75,5.01,3.73,7.76,2.19,1.99-1.11,3.05-3.24,2.9-5.38l101.81-32.56c1.6,2.58,4.95,3.48,7.63,1.98,2.75-1.54,3.73-5.01,2.19-7.76-.43-.77-1.01-1.39-1.68-1.86l42.62-80.27c1.47.49,3.13.39,4.59-.43,1.97-1.1,3.03-3.2,2.91-5.31l129.01-29.72c.08.2.18.4.29.6,1.54,2.75,5.01,3.73,7.76,2.19s3.73-5.01,2.19-7.76c-.36-.64-.82-1.17-1.35-1.61l46.22-71.28c1.59.73,3.5.71,5.15-.21,1.93-1.08,2.99-3.12,2.91-5.19l106.87-20.05s.03.06.04.09c1.54,2.75,5.01,3.73,7.76,2.19,2.42-1.36,3.47-4.22,2.63-6.76l56.99-30.54c1.6,2.58,4.95,3.47,7.62,1.98,1.58-.88,2.57-2.4,2.84-4.05l165.94,14.31c.01.92.25,1.85.73,2.71,1.54,2.75,5.01,3.73,7.76,2.19s3.73-5.01,2.19-7.76c-.34-.6-.77-1.11-1.26-1.53l30.17-52.86c1.5.54,3.21.46,4.71-.38,2.75-1.54,3.73-5.01,2.19-7.76-1.16-2.08-3.43-3.15-5.66-2.88l-14.33-67.33s.07-.03.11-.05c2.75-1.54,3.73-5.01,2.19-7.76-1.11-1.98-3.22-3.04-5.34-2.9l-19.43-87.79-.74,3.32-98.12,54.86c-1.7-2.2-4.79-2.89-7.29-1.5-2.08,1.16-3.15,3.44-2.88,5.67l-81.66,22.47c-.07-.16-.15-.32-.24-.48-1.54-2.75-5.01-3.73-7.76-2.19-2.75,1.54-3.73,5.01-2.19,7.76.22.39.48.74.77,1.06l-72.74,89.27c-1.71-1.06-3.92-1.18-5.79-.13-1.46.81-2.41,2.17-2.76,3.68l-103.2-10.29c-.04-.85-.27-1.71-.71-2.51-1.54-2.75-5.01-3.73-7.76-2.19-2.75,1.54-3.73,5.01-2.19,7.76.05.09.11.18.17.26l-102.9,88.85c-1.76-1.52-4.35-1.86-6.5-.66-1.1.62-1.92,1.55-2.4,2.62l-77.52-22.24c.16-1.18-.05-2.41-.67-3.53-1.54-2.75-5.01-3.73-7.76-2.19-1.89,1.06-2.94,3.02-2.92,5.04l-72.48,11.62c-.11-.36-.27-.72-.46-1.06-1.54-2.75-5.01-3.73-7.76-2.19s-3.73,5.01-2.19,7.76c.1.18.21.35.32.51L-28.04,240.34c-1.75-1.36-4.22-1.62-6.28-.47-2.75,1.54-3.73,5.01-2.19,7.76.98,1.76,2.76,2.79,4.63,2.91l6.54,75.47c-.59.11-1.18.31-1.73.62-2.75,1.54-3.73,5.01-2.19,7.76,1.53,2.73,4.96,3.71,7.7,2.23ZM33.8,398.6l1.66-52.58,104.27,22.73c.03.33.08.66.17.99l-9.57,3.06-91.95,29.4c-.1-.25-.2-.5-.34-.74-.92-1.64-2.52-2.64-4.25-2.87ZM132.16,156.73l-91.68,99.95c-.25-.17-.5-.31-.77-.44l31.53-104.88c1.2.18,2.46-.02,3.6-.66,1.3-.73,2.21-1.9,2.63-3.21l54.69,9.23ZM139.85,367.06l-104.34-22.75,2.43-77.24c.73-.08,1.45-.31,2.12-.69.22-.12.42-.26.61-.4l99.67,99.67c-.23.44-.4.92-.51,1.4ZM32.31,264.19c.19.34.41.65.65.93l-52.97,61.22,35.68-69.27,15.94,3.84c-.1,1.1.12,2.25.7,3.29ZM16.45,255.54l52.18-101.31-30.53,101.55c-1.2-.18-2.46.02-3.6.66-1.18.66-2.03,1.68-2.5,2.84l-15.55-3.74ZM134.13,157.07l17.98,3.03c-.02.98.21,1.98.72,2.89.04.07.08.13.12.2l-106.34,89.3,87.52-95.42ZM135.48,155.59l17-18.54c.83.56,1.79.89,2.79.97l1.27,16.63c-.52.12-1.03.31-1.52.58-1.3.73-2.2,1.9-2.63,3.21l-16.91-2.85ZM160.86,134.7l77.52,22.24s0,.05-.01.08l-74.95,2.19c-.11-.61-.31-1.21-.63-1.78-.97-1.74-2.72-2.77-4.57-2.9l-1.27-16.63c.52-.12,1.03-.31,1.52-.58,1.1-.62,1.92-1.55,2.4-2.62ZM249.61,158.81l92.44,4.71-9.42,76.54c-.79.06-1.58.29-2.32.7-.33.19-.64.4-.92.64l-80.78-80.33c.5-.68.84-1.45,1-2.26ZM229.44,194.37l13.16-31.17c1.37.35,2.87.2,4.2-.54.22-.12.42-.26.62-.41l80.86,80.41s-.04.07-.06.11l-98.78-48.39ZM227.93,193.64l-64.7-31.7c.11-.34.19-.69.23-1.05l74.95-2.2c.11.61.31,1.21.63,1.78.5.89,1.2,1.59,2.01,2.08l-13.12,31.08ZM227.28,195.18l-32.63,77.29c-.74-.21-1.53-.26-2.31-.15l-5.82-19.39-26.29-87.56c.12-.06.24-.11.36-.18.79-.44,1.43-1.05,1.91-1.75l64.79,31.74ZM187.59,276.63l-35.91-3.84,6.61-106.9c.11,0,.22-.02.33-.04l26.42,87.99,5.69,18.95c-.13.06-.26.12-.38.19-1.44.81-2.4,2.15-2.75,3.64ZM150.02,272.61l-107.04-11.44c-.03-.87-.26-1.74-.72-2.55-.04-.07-.08-.13-.12-.2l111.89-93.95c.74.66,1.64,1.1,2.59,1.31l-6.6,106.83ZM149.91,274.29l-5.46,88.38c-.62.11-1.24.31-1.83.64-.48.27-.91.6-1.27.97l-99.49-99.48c.44-.59.75-1.26.94-1.96l107.11,11.45ZM33.84,343.95l-52.51-11.45c.19-1.22,0-2.51-.65-3.67-.08-.15-.17-.28-.26-.42l53.81-62.19c.62.4,1.32.67,2.04.8l-2.42,76.93ZM-30.22,250.39c.5-.12.99-.3,1.46-.57,1.18-.66,2.03-1.68,2.5-2.84l40.24,9.68-35.93,69.76c-.55-.25-1.13-.41-1.73-.48l-6.54-75.56ZM68.56,150.25c.06.04.11.08.17.12L14.77,255.13l-40.63-9.78c.1-1.1-.12-2.25-.7-3.29-.1-.18-.21-.35-.32-.51l95.44-91.31ZM150.24,134.06c.11.36.27.72.46,1.06.16.29.35.55.55.8l-17.74,19.34-55.76-9.41c0-.06,0-.12,0-.18l72.48-11.62ZM351.74,65.79c.64.55,1.39.96,2.2,1.18l-11.68,94.88-92.56-4.71c-.07-.76-.3-1.52-.7-2.23-.05-.09-.11-.18-.17-.26l102.9-88.85ZM711.16,69.32c1-.98,1.6-2.28,1.7-3.64l41.55-2.96-6.73,53.33c-.82-.04-1.65.1-2.44.42l-34.07-47.16ZM549.09-19.52c.26.04.53.06.79.06l18.42,120.66c-.32.11-.64.24-.94.42-.93.52-1.65,1.26-2.14,2.11l-47.44-15.79,31.31-107.45ZM554.33-21.63l58.25,33.48-41.22,89.17c-.46-.1-.94-.15-1.41-.13l-18.41-120.61c.38-.12.75-.27,1.1-.47.67-.38,1.24-.87,1.69-1.44ZM614.04,12.69l87.82,50.47c-.36.91-.47,1.91-.33,2.89l-126.45,37.7c-.53-.92-1.28-1.64-2.15-2.13l41.11-88.93ZM614.75,11.16l26.04-56.32c1.16.34,2.43.31,3.62-.14l59.28,106.04c-.37.29-.71.61-.99.97l-87.95-50.55ZM726.96-27.68l-19.38,87.24c-.81-.06-1.63.06-2.42.36l-59.28-106.04c.79-.61,1.39-1.4,1.76-2.27l79.33,20.71ZM728.58-27.26l31.27,8.17c-.05,1.03.17,2.09.71,3.06.29.52.66.98,1.07,1.37l-51.94,74.79c-.16-.08-.32-.15-.49-.21l19.37-87.18ZM728.95-28.89l16.81-75.65,17.79,80.4c-.27.1-.53.21-.78.36-1.25.7-2.13,1.8-2.58,3.05l-31.23-8.16ZM764.01-13.32l-9.39,74.35-41.88,2.98c-.12-.53-.31-1.05-.59-1.55-.29-.52-.65-.97-1.06-1.36l52.2-74.68c.23.1.47.19.71.26ZM564.63,108.04l-57.07,30.59c-.93-1.32-2.35-2.14-3.87-2.36l13.62-46.73,47.29,15.74c-.21.9-.21,1.84.04,2.76ZM439.17,107.59l27.62-30.02c1.35.87,3.03,1.15,4.61.71l11.79,26.88,14.82,33.8c-.26.43-.47.9-.61,1.38l-58.25-32.76ZM515.71,89.01l-13.78,47.29c-.62.11-1.24.31-1.82.64-.32.18-.61.39-.88.61l-14.45-32.94-11.84-27c.88-.55,1.55-1.3,2.01-2.17l40.77,13.57ZM431.48,155.36l-40.78,7.65c-.11-.31-.24-.62-.41-.92-.16-.29-.35-.55-.54-.8l48.26-52.44,59.2,33.29c.01.29.04.58.1.86l-65.82,12.35ZM359.97,64.97l76.53,43.04-47.99,52.15c-1.15-.78-2.57-1.12-3.96-.93l-26.72-92.57c.14-.06.28-.13.41-.21.69-.39,1.27-.89,1.72-1.48ZM379.72,163.75l-35.78-1.82,11.66-94.76c.2,0,.41-.02.61-.05l3.46,12,23.26,80.57c-.14.06-.28.13-.41.2-1.51.85-2.49,2.28-2.8,3.85ZM464.21,73.16c.05.82.28,1.64.71,2.41.18.32.39.62.62.89l-27.87,30.29-76.88-43.23c.08-.21.14-.42.2-.64l103.23,10.29ZM546.95-20.27c.17.1.35.19.53.28l-31.29,107.39-40.69-13.55c.24-1.27.06-2.63-.62-3.85-.2-.36-.43-.68-.69-.98l72.77-89.3ZM637.18-48.32c.07.16.15.32.24.48.46.83,1.11,1.5,1.85,1.98l-25.97,56.18-58.12-33.41c.34-.87.47-1.83.35-2.77l81.66-22.47ZM744.53-106.77l-17.21,77.46-79.27-20.7c.1-.87-.01-1.77-.34-2.63l96.81-54.13ZM780.93,53.99c-.16.07-.32.15-.48.24-1.93,1.08-2.98,3.1-2.91,5.17l-21.21,1.51,9.34-74.02c.32,0,.64-.04.95-.1l14.3,67.21ZM749.71,116.53c-.13-.06-.25-.11-.38-.15l6.79-53.78,21.73-1.55c.11.32.24.63.41.93.4.72.95,1.32,1.57,1.79l-30.12,52.76ZM575.79,105.83c-.02-.17-.05-.35-.09-.52l60.68-18.09,65.63-19.57c.06.12.12.25.18.37,1.51,2.7,4.88,3.69,7.6,2.28l33.99,47.04c-.91.75-1.54,1.73-1.85,2.81l-166.14-14.33ZM335.29,240.47c-.32-.13-.65-.23-.98-.31l9.42-76.56,35.9,1.83c.07.76.3,1.52.7,2.23.32.58.74,1.07,1.21,1.49l-46.25,71.32ZM198.48,275.99c-.1-.28-.22-.55-.37-.81-.48-.86-1.15-1.55-1.93-2.04l32.61-77.22,98.79,48.4c-.16.64-.22,1.31-.15,1.97l-128.94,29.71ZM147.21,362.88c-.35-.12-.71-.2-1.07-.25l5.45-88.17,35.86,3.83c.05.83.27,1.67.71,2.45.43.77,1.01,1.39,1.68,1.86l-42.63,80.27ZM29.72,399.63l-49.97-64.01c.44-.45.8-.96,1.07-1.51l52.96,11.55-1.67,52.97c-.63.11-1.25.31-1.84.64-.2.11-.38.23-.56.36Z"/>
        </g>
        <g>
          <path class="cls-2" d="M703.17-30.23c-.06-.11-.1-.23-.15-.34l-61.38,7.39c-.02.56-.14,1.1-.36,1.61l48.96,30.84,14.95-37.54c-.84-.39-1.56-1.06-2.01-1.95Z"/>
          <path class="cls-2" d="M578.95,77.92l-9.64-11.78-43.51-53.2c-.09.05-.17.1-.26.15-.61.31-1.25.45-1.89.46l-7.46,53.72,61.89,12.16c.18-.55.48-1.06.88-1.5Z"/>
          <path class="cls-2" d="M526.94,11.95c-.05.06-.11.13-.16.19l43.73,53.47,9.42,11.52c.09-.06.18-.11.28-.16,1.11-.56,2.35-.59,3.43-.19l12.71-23.99-69.4-40.83Z"/>
          <path class="cls-2" d="M634.81-19.85c-.53-.39-.97-.9-1.29-1.52-.03-.05-.05-.11-.07-.16l-105.6,30.22c.1.74,0,1.49-.28,2.16l69.35,40.81,37.88-71.52Z"/>
          <path class="cls-2" d="M656.56,85.2c.37-.19.76-.31,1.14-.38l-20.16-103.83c-.55.02-1.1-.06-1.62-.24l-37.91,71.57,57.38,33.76c.33-.34.72-.64,1.17-.87Z"/>
          <path class="cls-2" d="M314.22,240.27c.2-.15.42-.29.65-.41.71-.36,1.48-.5,2.22-.45l10.1-36.21-80.13-25.67c-.09.18-.19.35-.3.52l67.45,62.21Z"/>
          <path class="cls-2" d="M312.82,242.1c.13-.33.3-.64.51-.94l-67.43-62.19c-.23.19-.48.35-.76.49-.52.26-1.06.41-1.61.45l-3.63,50.38,72.91,11.81Z"/>
          <path class="cls-2" d="M383.02,92.28l64.04,32.62,35.98-59.67c-.44-.37-.82-.83-1.1-1.37-.04-.07-.06-.14-.09-.21l-98.64,26.77c.07.63,0,1.27-.19,1.86Z"/>
          <path class="cls-2" d="M489.81,63.36c-.36,1-1.08,1.88-2.1,2.39-.17.09-.34.15-.52.22l16.11,84.2s.06,0,.09,0l11.38-81.91-24.96-4.9Z"/>
          <path class="cls-2" d="M640.61-20.51c-.36.42-.8.77-1.32,1.03-.17.08-.34.15-.51.21l20.2,104.03c.37.04.74.14,1.09.27l29.7-74.59-49.16-30.96Z"/>
          <path class="cls-2" d="M661.17,85.68c.2.16.38.33.54.52l5.93-4.68,56.99-44.94c-.12-.17-.22-.34-.32-.52-.64-1.26-.59-2.68,0-3.85l-33.47-21.08-29.68,74.54Z"/>
          <path class="cls-2" d="M487.74,58.12l32.88-45.79c-.33-.32-.62-.7-.84-1.14-.68-1.34-.58-2.86.11-4.07l-9.83-7.78c-.29.27-.63.51-1,.7-.85.43-1.77.54-2.64.4l-18.73,57.66s.04.02.05.03Z"/>
          <path class="cls-2" d="M234.35,307.51c.72.16,1.39.51,1.94,1.01l76.67-62.95c-.35-.72-.48-1.49-.42-2.24l-72.71-11.77-5.47,75.96Z"/>
          <path class="cls-2" d="M499.85,151.78c.37-.47.85-.86,1.41-1.15.26-.13.52-.23.79-.3l-16.09-84.12c-.63.03-1.25-.09-1.83-.33l-35.94,59.59,51.66,26.31Z"/>
          <path class="cls-2" d="M522.4,13.37c-.26-.08-.51-.18-.75-.3l-32.89,45.79c.33.32.62.7.84,1.14.35.68.49,1.42.45,2.13l24.89,4.89,7.45-53.65Z"/>
          <path class="cls-2" d="M510.84-1.65l9.83,7.78c.29-.27.63-.51,1-.7,1-.51,2.11-.58,3.11-.29l5.33-11.74-18.7,2.8c0,.75-.2,1.49-.57,2.14Z"/>
          <path class="cls-2" d="M525.93,5.66c.62.4,1.15.96,1.5,1.67.03.05.05.11.07.16l100.37-28.73-96.27,14.42-5.67,12.48Z"/>
          <path class="cls-2" d="M276.88,276.82l-39.79,32.68c.05.09.11.18.15.27,1.05,2.07.25,4.59-1.78,5.69l15.02,40.96c.85-.25,1.73-.23,2.53.03l60.93-109.57c-.1-.09-.19-.18-.28-.28l-36.79,30.21Z"/>
          <path class="cls-2" d="M186.44,226.39c-.58-.31-1.1-.75-1.5-1.32l-74.44,37.58,55.51,21.85,20.43-58.1Z"/>
          <path class="cls-2" d="M192.73,222.66l45.94,7.44,3.62-50.27c-.69-.15-1.33-.48-1.88-.95l-48.34,41.44c.07.11.14.23.2.35.32.64.47,1.32.46,1.99Z"/>
          <path class="cls-2" d="M499.22,152.88l-51.68-26.32-13.96,23.14c.44.37.82.83,1.1,1.37.22.45.36.91.42,1.38l63.9,1.17c.05-.25.13-.5.22-.74Z"/>
          <path class="cls-2" d="M706.4-27.92l-15.07,37.86,33.72,21.23c.33-.35.72-.65,1.17-.87.15-.08.3-.14.46-.2l-18.88-58.06c-.46.09-.93.1-1.39.03Z"/>
          <path class="cls-2" d="M327.53,201.99l8.67-31.05c-.89-.38-1.66-1.07-2.14-2.01-.14-.27-.24-.56-.32-.84l-86.25,7.8c0,.15-.03.3-.05.45l80.09,25.65Z"/>
          <path class="cls-2" d="M577.85,80.66l-61.84-12.15-11.38,81.92c.47.17.91.41,1.29.73l72.73-67.87c-.13-.18-.25-.37-.35-.57-.33-.66-.48-1.37-.46-2.06Z"/>
          <path class="cls-2" d="M654.67,87.1l-57.24-33.68-12.69,23.96c.5.38.92.87,1.23,1.47.3.59.44,1.21.45,1.83l67.95,7.19c.07-.27.17-.53.3-.77Z"/>
          <path class="cls-2" d="M190.91,226.1l41.15,81.53c.34-.11.68-.18,1.02-.21l5.48-76.07-46.05-7.46c-.28.87-.83,1.65-1.61,2.2Z"/>
          <path class="cls-2" d="M342.01,165.82l30.59-4.63,5.38-66.09c-.16-.04-.32-.09-.48-.15l-36.99,68.66c.49.38.91.86,1.2,1.45.12.25.22.5.29.76Z"/>
          <path class="cls-2" d="M363.25,214.75l-34.85-11.16-10.07,36.09c.65.25,1.23.65,1.7,1.18l43.06-22.71c-.43-1.14-.35-2.36.16-3.4Z"/>
          <path class="cls-2" d="M229.7,309.56c.3-.53.72-.99,1.24-1.36l-41.15-81.53c-.71.24-1.45.28-2.16.14l-20.45,58.15,62.52,24.6Z"/>
          <path class="cls-2" d="M426.57,153.01c0-1.05.38-2.07,1.08-2.86l-46.45-55.58c-.1.06-.2.12-.3.17-.53.27-1.09.41-1.65.45l-5.36,65.79,52.68-7.98Z"/>
          <path class="cls-2" d="M382.45,93.41c-.09.13-.19.25-.29.36l6.02,7.2,40.43,48.38c.1-.06.2-.12.3-.17,1.16-.59,2.47-.59,3.58-.13l13.91-23.07-63.96-32.58Z"/>
          <path class="cls-2" d="M427.02,154.93c-.11-.22-.2-.45-.27-.67l-52.97,8.02-4.15,50.89c.17.13.34.27.5.42l35.37-35.83,21.92-22.2c-.15-.2-.29-.41-.4-.64Z"/>
          <path class="cls-2" d="M342.18,167.07c-.02,1.21-.56,2.37-1.49,3.17l11.8,18.65,14.83,23.45c.38.02.76.09,1.11.2l4.08-50.07-30.32,4.59Z"/>
          <path class="cls-2" d="M364,213.67c.33-.34.72-.64,1.17-.87.25-.12.5-.22.75-.29l-14.46-22.86-11.85-18.74c-.71.31-1.47.42-2.19.34l-8.68,31.12,35.27,11.3Z"/>
          <path class="cls-5" d="M710.83-34.09c-1.07-2.11-3.65-2.96-5.76-1.9-.43.22-.8.5-1.12.82l-44.29-35.81c.71-1.22.82-2.75.14-4.11-1.07-2.11-3.65-2.96-5.76-1.9-1.58.8-2.46,2.45-2.35,4.11l-97.04,21.08c-.05-.14-.11-.28-.18-.42-1.07-2.11-3.65-2.96-5.76-1.9-2.11,1.07-2.96,3.65-1.9,5.76.13.26.29.51.47.73l-37.72,40.29c-1.25-.86-2.92-1.03-4.37-.3-2.11,1.07-2.96,3.65-1.9,5.76.43.86,1.12,1.5,1.92,1.9l-18.73,57.66c-.87-.15-1.79-.03-2.64.4-1.65.83-2.53,2.59-2.32,4.33l-98.64,26.77c-.03-.07-.06-.14-.09-.21-1.07-2.11-3.65-2.96-5.76-1.9-2.11,1.07-2.96,3.65-1.9,5.76.31.61.75,1.12,1.26,1.5l-36.98,68.64c-1.09-.41-2.34-.39-3.46.17-1.44.73-2.29,2.16-2.35,3.67l-86.22,7.8c-.08-.31-.18-.62-.34-.92-1.07-2.11-3.65-2.96-5.76-1.9-2.11,1.07-2.96,3.65-1.9,5.76.06.12.13.24.2.35l-48.34,41.44c-1.28-1.11-3.14-1.4-4.74-.59-1.92.97-2.79,3.19-2.13,5.17l-75.45,38.08-2.38-.94,46.54,49.02c-.97,1.27-1.2,3.03-.44,4.55,1.07,2.11,3.65,2.96,5.76,1.9.03-.01.05-.03.08-.05l35.93,37.24c-1.1,1.28-1.39,3.14-.59,4.74,1.07,2.11,3.65,2.96,5.76,1.9,1.15-.58,1.93-1.62,2.22-2.78l45.63,3.42c.06.49.19.97.43,1.43,1.07,2.11,3.65,2.96,5.76,1.9,2.11-1.07,2.96-3.65,1.9-5.76-.33-.66-.81-1.2-1.38-1.59l60.86-109.43c1.14.52,2.51.54,3.72-.07,2.06-1.04,2.91-3.5,1.97-5.58l43-22.67c1.23,1.59,3.46,2.14,5.32,1.2,2.11-1.07,2.96-3.65,1.9-5.76-.01-.02-.03-.04-.04-.06l57.43-58.17c1.26.92,2.97,1.12,4.46.37,1.27-.64,2.07-1.82,2.29-3.12l63.86,1.17c.05.51.19,1.03.44,1.52,1.07,2.11,3.65,2.96,5.76,1.9,2.11-1.07,2.96-3.65,1.9-5.76-.08-.15-.16-.29-.25-.43l72.77-67.9c1.26.96,3.02,1.19,4.53.42,1.12-.57,1.88-1.56,2.19-2.68l67.95,7.19c.01.62.16,1.24.45,1.83,1.07,2.11,3.65,2.96,5.76,1.9,2.06-1.04,2.91-3.51,1.97-5.59l63.1-49.76c1.27.99,3.04,1.23,4.57.45,2.11-1.07,2.96-3.65,1.9-5.76-.79-1.57-2.41-2.44-4.06-2.35l-18.93-58.21c2.08-1.08,2.91-3.64,1.85-5.73ZM724.32,36.07c.09.19.2.36.32.52l-56.99,44.94-5.93,4.68c-.17-.19-.35-.37-.54-.52l29.68-74.54,33.47,21.08c-.59,1.17-.63,2.59,0,3.85ZM549.47-46.15c1,.29,2.11.22,3.11-.29.88-.44,1.53-1.15,1.93-1.97l78.62,24.45c-.03.22-.05.44-.05.66l-100.85,15.11,17.24-37.96ZM658.98,84.77l-20.2-104.03c.17-.06.34-.13.51-.21.52-.26.96-.62,1.32-1.03l49.16,30.96-29.7,74.59c-.35-.14-.71-.23-1.09-.27ZM639.43-27.05l4.31-11.55,58.17,6.9-60.43,7.27c-.07-.27-.18-.54-.31-.8-.4-.8-1.02-1.42-1.75-1.82ZM638.25-27.49c-.92-.2-1.92-.09-2.82.36-.88.44-1.53,1.15-1.93,1.97l-76.12-23.68,85.08,10.09-4.21,11.26ZM627.87-21.24l-100.37,28.73c-.02-.05-.04-.11-.07-.16-.36-.71-.88-1.27-1.5-1.67l5.67-12.48,96.27-14.42ZM524.79,5.14c-1-.29-2.11-.22-3.11.29-.38.19-.71.43-1,.7l-9.83-7.78c.37-.65.57-1.39.57-2.14l18.7-2.8-5.33,11.74ZM509.06.04c.38-.19.71-.43,1-.7l9.83,7.78c-.69,1.21-.79,2.73-.11,4.07.22.44.51.82.84,1.14l-32.88,45.79s-.04-.02-.05-.03L506.42.43c.87.15,1.79.03,2.64-.4ZM485.96,66.21l16.09,84.12c-.27.07-.53.17-.79.3-.57.29-1.04.68-1.41,1.15l-51.66-26.31,35.94-59.59c.57.24,1.2.35,1.83.33ZM503.4,150.18s-.06,0-.09,0l-16.11-84.2c.17-.06.35-.13.52-.22,1.02-.52,1.75-1.39,2.1-2.39l24.96,4.9-11.38,81.91ZM490.06,62.13c.03-.71-.11-1.45-.45-2.13-.22-.44-.51-.82-.84-1.14l32.89-45.79c.24.12.49.22.75.3l-7.45,53.65-24.89-4.89ZM523.65,13.54c.64,0,1.28-.15,1.89-.46.09-.05.18-.1.26-.15l43.51,53.2,9.64,11.78c-.39.44-.69.95-.88,1.5l-61.89-12.16,7.46-53.72ZM580.2,76.96c-.1.05-.19.1-.28.16l-9.42-11.52-43.73-53.47c.06-.06.11-.12.16-.19l69.4,40.83-12.71,23.99c-1.08-.4-2.32-.38-3.43.19ZM527.58,10.86c.27-.68.37-1.42.28-2.16l105.6-30.22c.02.05.04.11.07.16.31.62.76,1.13,1.29,1.52l-37.88,71.52-69.35-40.81ZM635.93-19.26c.52.18,1.06.27,1.62.24l20.16,103.83c-.39.07-.77.2-1.14.38-.45.23-.84.52-1.17.87l-57.38-33.76,37.91-71.57ZM641.28-21.57c.22-.51.35-1.05.36-1.61l61.38-7.39c.05.11.09.23.15.34.45.89,1.17,1.56,2.01,1.95l-14.95,37.54-48.96-30.84ZM703.21-34.15c-.21.4-.35.83-.43,1.28l-58.58-6.94,10.89-29.15c.92.2,1.92.09,2.82-.36.36-.18.68-.41.97-.67l44.34,35.85ZM651.96-71.64c.05.14.11.28.18.42.4.8,1.02,1.42,1.75,1.82l-10.99,29.43-87.98-10.43c0-.05,0-.1,0-.16l97.04-21.08ZM548.21-46.74s.08.05.11.07l-17.58,38.71-19.51,2.92c-.07-.23-.16-.46-.27-.68-.13-.26-.29-.51-.47-.73l37.72-40.29ZM481.86,63.65c.03.07.06.14.09.21.28.55.65,1.01,1.1,1.37l-35.98,59.67-64.04-32.62c.2-.59.26-1.23.19-1.86l98.64-26.77ZM249.34,356.96c-.54.36-.97.82-1.29,1.34l-36.07-18.23,19.31-24.65c.89.51,1.95.68,2.99.47l15.06,41.06ZM327.19,203.2l-10.1,36.21c-.74-.05-1.51.09-2.22.45-.23.12-.45.26-.65.41l-67.45-62.21c.11-.17.21-.34.3-.52l80.13,25.67ZM245.15,179.47c.27-.14.53-.3.76-.49l67.43,62.19c-.21.29-.38.61-.51.94l-72.91-11.81,3.63-50.38c.54-.04,1.09-.19,1.61-.45ZM312.53,243.33c-.06.75.07,1.52.42,2.24l-76.67,62.95c-.55-.5-1.22-.85-1.94-1.01l5.47-75.96,72.71,11.77ZM233.09,307.42c-.34.03-.69.1-1.02.21l-41.15-81.53c.78-.55,1.34-1.33,1.61-2.2l46.05,7.46-5.48,76.07ZM187.63,226.81c.7.14,1.45.1,2.16-.14l41.15,81.53c-.52.37-.94.83-1.24,1.36l-62.52-24.6,20.45-58.15ZM229.24,310.73c-.03.13-.05.26-.07.39l-68.45.92c-.07-.42-.2-.84-.4-1.25-.38-.74-.94-1.33-1.61-1.73l8.06-22.92,62.47,24.59ZM157.54,308.58c-.97-.25-2.03-.16-2.99.32-.2.1-.38.21-.55.34l-42.62-44.89,54.22,21.34-8.05,22.89ZM160.69,313.53l68.49-1.13c.07.42.2.83.4,1.23.19.38.44.72.72,1.02l-19.47,24.85-50.28-25.41c.06-.18.1-.37.14-.55ZM318.32,239.68l10.07-36.09,34.85,11.16c-.5,1.04-.59,2.27-.16,3.4l-43.06,22.71c-.47-.54-1.06-.94-1.7-1.18ZM368.42,212.55c-.36-.12-.73-.18-1.11-.2l-14.83-23.45-11.8-18.65c.94-.8,1.47-1.97,1.49-3.17l30.32-4.59-4.08,50.07ZM337.42,171.25c.73.08,1.48-.03,2.19-.34l11.85,18.74,14.46,22.86c-.25.07-.51.17-.75.29-.45.23-.84.52-1.17.87l-35.27-11.3,8.68-31.12ZM370.13,213.6c-.16-.16-.32-.3-.5-.42l4.15-50.89,52.97-8.02c.07.23.16.45.27.67.12.23.25.44.4.64l-21.92,22.2-35.37,35.83ZM380.89,94.75c.1-.05.2-.11.3-.17l46.45,55.58c-.7.79-1.08,1.81-1.08,2.86l-52.68,7.98,5.36-65.79c.56-.04,1.12-.18,1.65-.45ZM428.92,149.18c-.1.05-.2.11-.3.17l-40.43-48.38-6.02-7.2c.1-.12.2-.24.29-.36l63.96,32.58-13.91,23.07c-1.12-.46-2.42-.46-3.58.13ZM377.51,94.95c.16.06.32.11.48.15l-5.38,66.09-30.59,4.63c-.07-.26-.17-.51-.29-.76-.3-.59-.71-1.08-1.2-1.45l36.99-68.66ZM333.74,168.09c.08.28.18.57.32.84.47.94,1.24,1.62,2.14,2.01l-8.67,31.05-80.09-25.65c.02-.15.04-.3.05-.45l86.25-7.8ZM240.41,178.88c.54.47,1.19.79,1.88.95l-3.62,50.27-45.94-7.44c0-.67-.14-1.35-.46-1.99-.06-.12-.13-.24-.2-.35l48.34-41.44ZM184.95,225.07c.4.56.91,1.01,1.5,1.32l-20.43,58.1-55.51-21.85,74.44-37.58ZM159.52,315.75c.17-.17.33-.36.46-.55l50.06,25.3-9.86,12.58c-1.26-.91-2.96-1.1-4.45-.36-.12.06-.24.13-.35.2l-35.87-37.17ZM201.95,356.35c-.03-.58-.17-1.17-.45-1.73-.12-.23-.26-.45-.41-.65l10.1-12.89,36.37,18.38c-.03.1-.05.2-.07.3l-45.54-3.42ZM253.03,356.45c-.81-.26-1.69-.28-2.53-.03l-15.02-40.96c2.02-1.1,2.82-3.62,1.78-5.69-.05-.09-.1-.18-.15-.27l39.79-32.68,36.79-30.21c.09.1.19.19.28.28l-60.93,109.57ZM435.1,152.45c-.06-.47-.2-.93-.42-1.38-.28-.55-.65-1.01-1.1-1.37l13.96-23.14,51.68,26.32c-.1.24-.17.49-.22.74l-63.9-1.17ZM505.93,151.16c-.39-.32-.83-.57-1.29-.73l11.38-81.92,61.84,12.15c-.02.69.12,1.4.46,2.06.1.2.22.39.35.57l-72.73,67.87ZM586.42,80.69c-.01-.62-.16-1.24-.45-1.83-.3-.6-.73-1.09-1.23-1.47l12.69-23.96,57.24,33.68c-.12.25-.22.51-.3.77l-67.95-7.19ZM726.21,30.31c-.45.23-.84.53-1.17.87l-33.72-21.23,15.07-37.86c.46.07.93.06,1.39-.03l18.88,58.06c-.15.06-.31.12-.46.2Z"/>
        </g>
      </g>
    </g>
    <text class="cls-3" transform="translate(50.25 73)"><tspan x="0" y="0">BACKEND</tspan></text>
  </g>
</svg>