<?xml version="1.0" encoding="UTF-8"?>
<svg id="Capa_2" xmlns="http://www.w3.org/2000/svg" xmlns:xlink="http://www.w3.org/1999/xlink" viewBox="0 0 750 254.17">
  <defs>
    <style>
      .cls-1 {
        opacity: .3;
      }

      .cls-2 {
        fill: none;
      }

      .cls-3 {
        fill: #c1c1c1;
        font-family: MyriadPro-Regular, 'Myriad Pro';
        font-size: 37px;
      }

      .cls-4 {
        letter-spacing: 0em;
      }

      .cls-5 {
        fill: #84ceda;
      }

      .cls-6 {
        letter-spacing: -.03em;
      }

      .cls-7 {
        letter-spacing: 0em;
      }

      .cls-8 {
        clip-path: url(#clippath);
      }

      .cls-9 {
        letter-spacing: 0em;
      }
    </style>
    <clipPath id="clippath">
      <rect class="cls-2" width="750" height="254.17"/>
    </clipPath>
  </defs>
  <g id="object">
    <g class="cls-8">
      <g>
        <g class="cls-1">
          <path class="cls-2" d="M768.31,176.38c-.84-.64-1.46-1.57-1.69-2.67l-84.24,12.15c.08,1-.17,1.95-.67,2.75l53.21,38.15,33.38-50.38Z"/>
          <path class="cls-2" d="M695.18,286.74l39.42-59.49-53.23-38.17c-.63.77-1.52,1.34-2.57,1.56l13.77,95.52c.94-.07,1.84.14,2.61.58Z"/>
          <path class="cls-2" d="M727.23,111.17l-46.64,71.41c.55.42,1.01.96,1.33,1.59l71.94-30.5-26.62-42.51Z"/>
          <path class="cls-2" d="M754.17,154.18l-72.02,30.54c.06.18.11.37.15.56l83.78-12.08-11.91-19.02Z"/>
          <path class="cls-2" d="M583.93,281.66c.02.11.02.22.03.33l104.48,8.05c.15-1.04.65-1.98,1.41-2.68l-51.03-62.77-56.14,54.56c.65.66,1.11,1.53,1.25,2.52Z"/>
          <path class="cls-2" d="M674.83,189.58l-35.59,34.59,51.06,62.82c.49-.35,1.06-.61,1.69-.74l-13.77-95.52c-1.28.1-2.5-.34-3.39-1.15Z"/>
          <path class="cls-2" d="M515.19,233.15l1.15,24.65,1.28,27.42c.37-.17.77-.29,1.19-.35.67-.1,1.32-.04,1.93.14l23.82-31.33-26.64-21.89c-.67.7-1.58,1.19-2.61,1.34-.04,0-.09,0-.13.01Z"/>
          <path class="cls-2" d="M674.42,189.15c-.54-.63-.91-1.41-1.04-2.29-.04-.27-.05-.53-.04-.8l-66.93-6.59c-.16,1-.66,1.91-1.39,2.59l33.85,41.64,35.55-34.55Z"/>
          <path class="cls-2" d="M598.97,182.16c-.31-.27-.58-.58-.81-.92l-79.38,45.5c.18.39.31.82.38,1.27.18,1.23-.16,2.42-.84,3.34l26.61,21.87,54.04-71.06Z"/>
          <path class="cls-2" d="M575.92,279.46l-30.9-25.39-23.7,31.17c1.34.6,2.35,1.84,2.61,3.39l50.98-6.43c.02-1.02.39-1.98,1.01-2.74Z"/>
          <path class="cls-2" d="M580.57,277.92c.62.16,1.18.44,1.68.83l56.2-54.63-33.89-41.68c-.57.4-1.24.69-1.98.79-.45.07-.9.06-1.33,0l-14.36,65.73-6.33,28.96Z"/>
          <path class="cls-2" d="M576.32,279.03c.66-.63,1.51-1.07,2.48-1.21.4-.06.8-.06,1.19,0l19.55-89.45,1.15-5.26c-.45-.13-.87-.33-1.25-.58l-54.05,71.08,30.94,25.43Z"/>
          <path class="cls-2" d="M481.36,245.6l34.26,41.35c.36-.57.84-1.06,1.42-1.43l-1.02-21.76-1.43-30.59c-1.58-.02-3.01-.87-3.8-2.18l-29.43,14.6Z"/>
          <path class="cls-2" d="M824.16,123.87c-.09-.27-.17-.55-.21-.85-.04-.3-.05-.59-.04-.88l-96.1-11.15,26.59,42.46,69.76-29.58Z"/>
          <path class="cls-2" d="M695.67,287.07c.31.24.59.51.83.82l59.8-40.67c-.29-.49-.49-1.05-.58-1.65-.15-1.01.06-1.98.51-2.81l-21.15-15.16-39.41,59.47Z"/>
          <path class="cls-2" d="M697.42,290.03c.08.58.05,1.15-.08,1.68l32.19,9.8,28.28-52.74c-.38-.24-.73-.54-1.03-.88l-59.94,40.5c.29.49.49,1.04.58,1.64Z"/>
          <path class="cls-2" d="M750.45,303.38c.27-.04.54-.05.8-.04l8.53-53.91c-.51-.05-1-.18-1.45-.39l-28.23,52.64,16.6,5.05c.44-1.72,1.88-3.09,3.74-3.36Z"/>
          <path class="cls-2" d="M735.41,227.1l21.13,15.15c.69-.96,1.76-1.64,3.02-1.82.35-.05.69-.06,1.03-.03l9.5-63.2c-.46-.1-.89-.27-1.29-.5l-33.39,50.4Z"/>
          <path class="cls-2" d="M510.53,230.48c-.16-.37-.28-.76-.34-1.18-.12-.82,0-1.62.29-2.34l-73.6-37.01c-.22.37-.49.71-.8,1l44.9,54.19,29.55-14.65Z"/>
          <path class="cls-2" d="M823.98,121.56c.34-1.86,1.83-3.39,3.81-3.67,2.03-.29,3.95.81,4.76,2.59l32.92-55.14c-.7-.48-1.26-1.16-1.6-1.97l-135.32,47.11,95.43,11.08Z"/>
          <path class="cls-2" d="M514.95,288.95c.05-.5.17-.99.37-1.44l-34.51-41.65-50.99,25.29c.14.34.25.71.31,1.1.06.4.06.79.01,1.17l52.23,9.56,32.57,5.96Z"/>
          <path class="cls-2" d="M429.57,270.63l50.86-25.22-44.81-54.09c-.58.42-1.26.71-2.01.82-.25.04-.5.05-.74.04l-6.54,76.24c1.36.21,2.56,1.03,3.24,2.21Z"/>
          <path class="cls-5" d="M867.39,57.12c-2.48.36-4.2,2.66-3.84,5.13.03.19.07.38.12.56l-136.31,47.46-.12-.19-.2.3-1.12.39.8.09-46.64,71.41c-.84-.48-1.84-.69-2.87-.54-2.01.29-3.52,1.85-3.83,3.75l-66.93-6.59c0-.26,0-.53-.04-.8-.36-2.48-2.66-4.2-5.13-3.84s-4.2,2.66-3.84,5.13c.07.48.21.93.42,1.35l-79.37,45.49c-.93-1.46-2.65-2.32-4.47-2.06-1.45.21-2.63,1.08-3.3,2.26l-73.6-37.01c.31-.74.44-1.56.32-2.42-.36-2.48-2.66-4.2-5.13-3.84s-4.2,2.66-3.84,5.13c.29,2.03,1.88,3.54,3.81,3.84l-6.54,76.24c-.24,0-.49,0-.74.04-2.48.36-4.2,2.66-3.84,5.13.09.65.33,1.25.66,1.78l-54.57,39.7c-.98-1.1-2.47-1.7-4.04-1.48-2.48.36-4.2,2.66-3.84,5.13.36,2.48,2.66,4.2,5.13,3.84,1.19-.17,2.21-.8,2.9-1.67l47.14,32.65c-.52.86-.76,1.91-.6,2.98.36,2.48,2.66,4.2,5.13,3.84,1.26-.18,2.32-.86,3.01-1.82l79.09,50.19c-.46.83-.66,1.81-.51,2.82.36,2.48,2.66,4.2,5.13,3.84s4.2-2.66,3.84-5.13c-.16-1.08-.68-2.01-1.42-2.69l38.88-48.31c.91.64,2.06.95,3.25.78,2.27-.33,3.9-2.28,3.88-4.51l147.99-10.47-.02-.3s0,0,0,0c.36,2.48,2.66,4.2,5.13,3.84,2.48-.36,4.2-2.66,3.84-5.13-.1-.67-.34-1.29-.69-1.82l37.38-30.57c.16.16.33.32.52.46l-60.46,92.65c-.84-.48-1.84-.69-2.87-.54-2.48.36-4.2,2.66-3.84,5.13.36,2.48,2.66,4.2,5.13,3.84,1.56-.23,2.82-1.22,3.45-2.55l117.28,46.42c-.17.6-.23,1.25-.13,1.9.36,2.48,2.66,4.2,5.13,3.84,2.24-.32,3.85-2.23,3.88-4.42l59.37-5.51c.39,2.44,2.67,4.13,5.12,3.78,2.48-.36,4.2-2.66,3.84-5.13-.25-1.75-1.48-3.12-3.05-3.65l11.78-44.67c.45.08.92.08,1.4.02,2.48-.36,4.2-2.66,3.84-5.13-.36-2.48-2.66-4.2-5.13-3.84-.02,0-.05,0-.07.01l-15.88-59.55c2.14-.62,3.55-2.73,3.22-5-.1-.72-.38-1.38-.77-1.94l47.13-37.47c.98,1.08,2.46,1.66,4.01,1.44,2.48-.36,4.2-2.66,3.84-5.13-.36-2.48-2.66-4.2-5.13-3.84-.62.09-1.19.3-1.69.6l-30.97-44.61c1.22-.97,1.91-2.54,1.67-4.19-.18-1.24-.85-2.3-1.78-2.99l41.44-64.03c.84.47,1.83.68,2.86.53,2.48-.36,4.2-2.66,3.84-5.13s-2.66-4.2-5.13-3.84c-1.61.23-2.89,1.28-3.5,2.67l-103.41-37.51c.18-.6.23-1.25.14-1.91-.03-.18-.07-.36-.11-.54l33.16-55.55c.81.41,1.75.59,2.71.46,2.48-.36,4.2-2.66,3.84-5.13s-2.66-4.2-5.13-3.84ZM727.81,110.99l96.1,11.15c-.01.29,0,.58.04.88.04.29.11.58.21.85l-69.76,29.58-26.59-42.46ZM854.38,268.65c-.85-.6-1.91-.91-3.02-.81l-22-140.87.11-.19c.35-.08.68-.2.99-.36l58.29,99.78-34.38,42.45ZM855.33,269.56l35.49-31.74c.56.55,1.26.96,2.03,1.16l-7.51,39.2-29.08-5.3c.04-.38.05-.77-.01-1.17-.12-.81-.45-1.54-.92-2.15ZM850.77,267.93c-.6.13-1.15.38-1.63.72l-60.38-74.49,37.66-67.73c.7.35,1.5.51,2.32.46l22.03,141.04ZM849.06,276l-37.11,57.59c-.84-.47-1.83-.68-2.85-.53-.44.06-.85.19-1.23.36l-20.37-38.08,60.09-21.2c.32.75.83,1.39,1.47,1.86ZM824.81,125.1l-50.56,44.47c-.98-.97-2.38-1.49-3.85-1.28-2.27.33-3.9,2.28-3.88,4.51l-11.81-18.85,69.67-29.54c.12.24.26.48.43.69ZM825.92,126.14l-37.55,67.53-14.24-17.57c1.06-.98,1.63-2.44,1.41-3.98-.12-.8-.44-1.52-.9-2.12l50.36-44.29.2-.18c.22.22.46.42.72.6ZM771.7,177.26c.74-.11,1.4-.39,1.97-.79l14.39,17.75-25.91,46.6c-.3-.14-.62-.25-.95-.32l9.48-63.21c.34.03.68.02,1.03-.03ZM760.59,240.4c-.34-.03-.68-.02-1.03.03-1.26.18-2.32.87-3.02,1.82l-21.13-15.15,33.39-50.4c.4.23.83.4,1.29.5l-9.5,63.2ZM756.23,242.75c-.45.83-.65,1.8-.51,2.81.09.6.29,1.16.58,1.65l-59.8,40.67c-.24-.31-.52-.59-.83-.82l39.41-59.47,21.15,15.16ZM751.84,303.39l8.53-53.94c.16,0,.32-.02.48-.04.44-.06.85-.19,1.23-.36l24.59,45.96-31.4,11.08c-.61-1.42-1.91-2.44-3.42-2.69ZM756.78,247.89c.3.34.64.64,1.03.88l-28.28,52.74-32.19-9.8c.13-.54.16-1.1.08-1.68-.09-.6-.29-1.15-.58-1.64l59.94-40.5ZM758.33,249.04c.45.21.94.34,1.45.39l-8.53,53.91c-.26,0-.53,0-.8.04-1.87.27-3.3,1.64-3.74,3.36l-16.6-5.05,28.23-52.64ZM755.59,307.22c-.03-.2-.07-.39-.13-.58l31.49-11.11,20.42,38.16c-.62.39-1.14.92-1.51,1.55l-50.59-25.6c.32-.74.45-1.57.32-2.43ZM787.23,294.81l-24.63-46.04c.85-.53,1.51-1.33,1.86-2.27l82.89,24.84c-.12.53-.16,1.09-.07,1.66.03.2.07.39.13.58l-60.17,21.23ZM764.62,245.93c.12-.53.15-1.09.07-1.66-.19-1.35-.97-2.47-2.03-3.16l25.8-46.4,60.23,74.31c-.52.48-.92,1.08-1.17,1.75l-82.89-24.84ZM680.59,182.59l46.64-71.41,26.62,42.51-71.94,30.5c-.32-.63-.77-1.18-1.33-1.59ZM682.15,184.72l72.02-30.54,11.91,19.02-83.78,12.08c-.04-.19-.09-.38-.15-.56ZM682.38,185.86l84.24-12.15c.23,1.1.85,2.03,1.69,2.67l-33.38,50.38-53.21-38.15c.5-.8.75-1.75.67-2.75ZM678.8,190.64c1.04-.22,1.93-.78,2.57-1.56l53.23,38.17-39.42,59.49c-.77-.44-1.67-.66-2.61-.58l-13.77-95.52ZM691.99,286.24c-.62.13-1.19.39-1.69.74l-51.06-62.82,35.59-34.59c.9.81,2.11,1.25,3.39,1.15l13.77,95.52ZM689.85,287.35c-.75.7-1.26,1.64-1.41,2.68l-104.48-8.05c0-.11-.01-.22-.03-.33-.14-.99-.6-1.86-1.25-2.52l56.14-54.56,51.03,62.77ZM606.41,179.48l66.93,6.59c0,.26,0,.53.04.8.13.88.5,1.66,1.04,2.29l-35.55,34.55-33.85-41.64c.73-.68,1.23-1.59,1.39-2.59ZM601.26,183.22c.43.06.87.07,1.33,0,.74-.11,1.41-.39,1.98-.79l33.89,41.68-56.2,54.63c-.49-.39-1.06-.67-1.68-.83l6.33-28.96,14.36-65.73ZM600.68,183.1l-1.15,5.26-19.55,89.45c-.39-.05-.79-.05-1.19,0-.97.14-1.82.58-2.48,1.21l-30.94-25.43,54.05-71.08c.38.25.8.45,1.25.58ZM576.93,286.07l-32.74,56.66-22.58-49.38c1.49-.8,2.45-2.4,2.38-4.15l50.94-6.42c0,.06,0,.11.02.17.19,1.33.94,2.43,1.97,3.12ZM514.6,233.18l1.43,30.59,1.02,21.76c-.58.37-1.06.85-1.42,1.43l-34.26-41.35,29.43-14.6c.8,1.31,2.23,2.15,3.8,2.18ZM523.93,288.62c-.26-1.55-1.27-2.79-2.61-3.39l23.7-31.17,30.9,25.39c-.61.76-.98,1.72-1.01,2.74l-50.98,6.43ZM519.16,228.01c-.07-.45-.2-.87-.38-1.27l79.38-45.5c.23.34.5.65.81.92l-54.04,71.06-26.61-21.87c.69-.93,1.02-2.11.84-3.34ZM517.93,231.8l26.64,21.89-23.82,31.33c-.61-.18-1.26-.24-1.93-.14-.42.06-.82.18-1.19.35l-1.28-27.42-1.15-24.65s.09,0,.13-.01c1.04-.15,1.94-.64,2.61-1.34ZM436.87,189.94l73.6,37.01c-.29.72-.41,1.52-.29,2.34.06.42.18.81.34,1.18l-29.55,14.65-44.9-54.19c.31-.29.58-.63.8-1ZM432.87,192.18c.24,0,.49,0,.74-.04.75-.11,1.44-.4,2.01-.82l44.81,54.09-50.86,25.22c-.69-1.18-1.88-2-3.24-2.21l6.54-76.24ZM430.14,272.25c-.06-.39-.16-.75-.31-1.1l50.99-25.29,34.51,41.65c-.2.45-.33.93-.37,1.44l-32.57-5.96-52.23-9.56c.04-.38.05-.77-.01-1.17ZM430.05,274.01l84.89,15.54c0,.15.02.31.04.46.08.58.28,1.11.55,1.59l-57.11,37.57-30.26-52.5c.93-.62,1.61-1.57,1.89-2.67ZM426.3,277.39c.49-.07.94-.22,1.36-.42l30.27,52.53-35.88,23.6c-.71-.93-1.76-1.57-2.93-1.75l6.43-73.92c.25,0,.49,0,.75-.04ZM414.88,353.02l-47.14-32.65c.52-.86.76-1.91.6-2.98-.1-.7-.36-1.34-.74-1.9l54.56-39.69c.7.84,1.69,1.42,2.8,1.58l-6.43,73.92c-.25,0-.49,0-.75.04-1.19.17-2.21.8-2.9,1.67ZM501.5,408.2l-79.09-50.19c.46-.83.66-1.81.51-2.82-.08-.58-.28-1.11-.55-1.59l35.85-23.59,44.43,77.09c-.45.3-.84.67-1.15,1.1ZM505.4,406.34c-.29-.01-.59,0-.88.04-.49.07-.94.22-1.36.42l-44.44-77.12,57.13-37.59c.68.9,1.68,1.52,2.8,1.72l-13.25,112.52ZM505.98,406.41l13.25-112.52c.29.01.59,0,.88-.04.34-.05.66-.14.97-.25l22.75,49.76-36.66,63.45c-.37-.18-.77-.32-1.19-.39ZM545.22,356.16c.16,1.08.68,2.01,1.42,2.69l-38.88,48.31s-.06-.04-.09-.06l36.45-63.09,3.43,7.51c-1.63.88-2.62,2.7-2.34,4.64ZM549.06,351.02c-.34.05-.66.14-.97.25l-3.6-7.88,32.94-57.02s.02.01.03.02l-26.33,64.82c-.65-.22-1.35-.29-2.08-.19ZM702.18,344.43l-147.98,10.47s0-.02,0-.03c-.22-1.55-1.2-2.8-2.51-3.43l26.33-64.82c.65.22,1.35.29,2.08.19,1.55-.22,2.81-1.21,3.44-2.53l119.05,57.89c-.32.69-.47,1.46-.41,2.27ZM702.86,341.65l-119.12-57.92c.12-.37.2-.75.22-1.14l16.59,1.28,87.84,6.76c0,.23,0,.46.04.7.36,2.48,2.66,4.2,5.13,3.84.08-.01.15-.03.23-.04l11.81,44.55c-1.17.28-2.14,1.01-2.75,1.98ZM708.84,340.09c-.78-.43-1.7-.62-2.65-.52l-11.82-44.6c1.31-.44,2.33-1.45,2.8-2.7l32.07,9.76-20.4,38.05ZM747.48,310.59l-37.34,30.54c-.24-.27-.5-.52-.79-.73l20.48-38.19,16.78,5.11c-.05.39-.05.79,0,1.19.11.78.42,1.49.87,2.08ZM807.27,455.9l-117.27-46.42c.21-.64.28-1.33.18-2.04-.18-1.24-.84-2.29-1.77-2.98l60.46-92.65c.84.48,1.84.69,2.87.54.27-.04.52-.1.77-.18l56.95,141.45c-.99.47-1.76,1.29-2.19,2.28ZM811.14,453.19c-.12,0-.24.02-.36.03-.26.04-.52.1-.76.18l-56.95-141.45c.82-.39,1.49-1.02,1.94-1.78l50.59,25.6c-.32.74-.45,1.57-.32,2.43.31,2.18,2.14,3.78,4.26,3.88l1.61,111.12ZM889.28,398.76c.26,1.8,1.54,3.19,3.17,3.69l-11.78,44.66c-.49-.1-1-.12-1.52-.04-2.3.33-3.95,2.34-3.88,4.61l-59.35,5.51s0-.08-.01-.12c-.31-2.16-2.09-3.74-4.18-3.88l-1.61-111.13c.1,0,.19-.01.29-.03,1.17-.17,2.16-.77,2.85-1.61l76.76,55.16c-.61.9-.9,2.02-.73,3.18ZM892.21,393.85c-.72.26-1.35.7-1.84,1.26l-76.77-55.17c.55-.88.8-1.94.64-3.05-.18-1.25-.85-2.3-1.79-3l37.11-57.59c.84.47,1.83.68,2.85.53.18-.03.35-.06.51-.11l39.29,117.12ZM891.23,389.09l-19.04-56.77c.95,1.36,2.61,2.15,4.36,1.9.01,0,.03,0,.04,0l14.64,54.88ZM871.38,329.9l-16.72-49.83,19.06,45.7c-1.47.81-2.4,2.39-2.34,4.13ZM876.33,325.23c-.35-.03-.71-.03-1.07.02-.36.05-.69.15-1.01.27l-20.47-49.11c1.19-.59,2.06-1.68,2.39-2.96l29.07,5.3-8.9,46.47ZM925.63,287.28c.1.72.38,1.38.77,1.94l-47.13,37.47c-.62-.68-1.44-1.16-2.35-1.37l8.9-46.46,39.81,7.25c-.04.38-.05.77.01,1.17ZM923.69,277.89l3.6,5.19c-.77.62-1.34,1.48-1.58,2.45l-39.8-7.25,7.51-39.2c.39.05.8.05,1.21,0,.62-.09,1.19-.3,1.69-.6l27.36,39.42ZM889.5,235.24c.12.81.45,1.54.92,2.15l-35.49,31.74s-.06-.07-.1-.1l34.23-42.27,2.39,4.08c-1.39.94-2.21,2.62-1.95,4.4ZM896.2,230.63c-.84-.47-1.83-.68-2.86-.53-.49.07-.96.22-1.38.43l-2.5-4.27,47.63-58.81-40.9,63.19ZM935.99,161.7c-.18.6-.23,1.25-.14,1.91.15,1.07.67,2,1.41,2.68l-48.12,59.42-58.18-99.59c.71-.48,1.27-1.15,1.61-1.94l103.41,37.51ZM865.47,65.33l-32.92,55.14c-.82-1.78-2.73-2.88-4.76-2.59-1.98.29-3.47,1.81-3.81,3.67l-95.43-11.08,135.32-47.11c.34.81.9,1.48,1.6,1.97Z"/>
        </g>
        <path class="cls-5" d="M-22.39,256.8c1.51.68,3.22.3,4.32-.82l68.9,55.53c-.11.17-.22.35-.3.54-.87,1.92-.02,4.19,1.91,5.06,1.92.87,4.19.02,5.06-1.91.14-.31.23-.62.28-.94l49.03,3.63c.03,1.43.85,2.78,2.24,3.41,1.92.87,4.19.02,5.06-1.91.38-.85.43-1.77.2-2.6l50.45-19.24c.38.77,1.01,1.42,1.86,1.8.91.41,1.9.43,2.78.14l51.21,116.89c-.7.38-1.28.98-1.63,1.77-.87,1.92-.02,4.19,1.91,5.06,1.92.87,4.19.02,5.06-1.91.25-.56.36-1.15.33-1.72l152.95-20.17c-.61,1.83.25,3.87,2.05,4.68,1.92.87,4.19.02,5.06-1.91.08-.18.14-.35.19-.53l55.77,10.35c-.14,1.58.7,3.14,2.23,3.83.77.35,1.59.42,2.35.26l20.99,68.61-.96-.16,1.16.82.13.41.2-.18,99.21,70.33c-.06.11-.12.22-.17.34-.87,1.92-.02,4.19,1.91,5.06,1.92.87,4.19.02,5.06-1.91.87-1.92.02-4.19-1.91-5.06-.72-.32-1.48-.41-2.2-.29l-13.87-52.87c.05-.09.1-.18.14-.28.22-.48.33-.98.34-1.48l92.56-6.15c.2,1.22.98,2.33,2.2,2.88,1.92.87,4.19.02,5.06-1.91.87-1.92.02-4.19-1.91-5.06-.76-.34-1.57-.41-2.34-.26l-18.56-61.59c.88-.36,1.63-1.03,2.05-1.96.56-1.25.4-2.64-.31-3.7l35.55-28.89c.32.33.71.61,1.15.81,1.92.87,4.19.02,5.06-1.91.87-1.92.02-4.19-1.91-5.06-1.17-.53-2.46-.42-3.49.18l-29.4-41.41c.41-.35.76-.79.99-1.32.78-1.73.17-3.72-1.35-4.74l26.83-44.52c1.91.84,4.15-.01,5.02-1.92.87-1.92.02-4.19-1.91-5.06-.34-.15-.68-.25-1.03-.3l.93-38.96c1.36-.09,2.62-.91,3.22-2.24.16-.34.25-.7.3-1.06l59.19,2.6c.07,1.39.89,2.69,2.24,3.3,1.92.87,4.19.02,5.06-1.91.87-1.92.02-4.19-1.91-5.06-.14-.06-.28-.12-.43-.16l18.46-85.41c1.61.2,3.24-.66,3.94-2.22.87-1.92.02-4.19-1.91-5.06s-4.19-.02-5.06,1.91c-.25.55-.35,1.12-.33,1.69l-126.94,15.58c-.29-1.05-1.03-1.97-2.11-2.46-1.92-.87-4.19-.02-5.06,1.91s-.02,4.19,1.91,5.06c.19.09.39.15.58.2l-5.18,44.68c-1.52-.07-3,.77-3.66,2.24-.22.48-.33.98-.34,1.47l-105.89,10.12c-.23-1.18-1-2.24-2.18-2.77-1.92-.87-4.19-.02-5.06,1.91s-.02,4.19,1.91,5.06c.44.2.9.3,1.36.33l1.74,49.17c-1.27.16-2.43.96-3,2.21l.12-.33-117.41-43.16c.47-1.77-.39-3.68-2.11-4.46-.89-.4-1.85-.43-2.72-.16l-20.17-48.26c.72-.38,1.33-1,1.69-1.8.87-1.92.02-4.19-1.91-5.06-1.92-.87-4.19-.02-5.06,1.91-.34.75-.41,1.55-.27,2.3l-75.84,22.12c-.35-.89-1.04-1.65-1.98-2.08-1.92-.87-4.19-.02-5.06,1.91-.36.8-.42,1.66-.23,2.45l-45.85,15.41c-.37-.83-1.02-1.53-1.92-1.94-1.92-.87-4.19-.02-5.06,1.91-.09.2-.16.41-.21.62l-87.79-12.51c.04-1.49-.8-2.94-2.25-3.59-1.09-.49-2.29-.43-3.28.06l-33-51.14c.5-.37.91-.87,1.18-1.48.87-1.92.02-4.19-1.91-5.06-1.92-.87-4.19-.02-5.06,1.91,0,.01-.01.03-.02.04l-45.64-10.43-24.12-5.51c.06-1.51-.78-2.98-2.24-3.64-1.92-.87-4.19-.02-5.06,1.91-.68,1.49-.31,3.19.79,4.28l-29.77,45.66s-.09-.05-.14-.07c-1.92-.87-4.19-.02-5.06,1.91-.87,1.92-.02,4.19,1.91,5.06.46.21.93.31,1.4.33l-.07,50.74c-1.32.12-2.55.93-3.14,2.23-.87,1.92-.02,4.19,1.91,5.06ZM13.87,146.95c1.22-.2,2.33-.98,2.88-2.2.11-.23.19-.47.24-.71l27.35,6.25,42.28,9.66c-.08.36-.11.73-.09,1.09l-68.53,21.17-4.12-35.26ZM277.93,217.28l23.47,27.46-36.76,35.39c-.27-.23-.58-.43-.92-.59-.16-.07-.33-.13-.49-.18l12.12-61.4c.92.09,1.85-.15,2.59-.68ZM356.37,192.81c.27.23.58.43.92.59.2.09.4.16.61.21l-15.64,94.26c-.89-.06-1.76.18-2.48.69l-37.41-43.76,54-51.98ZM626.69,428.82l-17.54-41.59,21,33.54c-.49.37-.89.87-1.16,1.46-.61,1.35-.37,2.86.48,3.94l-2.78,2.65ZM649.75,491.1c-.22.48-.33.98-.34,1.48l-92.56,6.15c-.1-.64-.37-1.25-.77-1.76l70.36-66.93,24.99,59.27c-.72.38-1.32.99-1.68,1.79ZM225.22,417.08c-.3-.31-.66-.58-1.06-.78l22.88-58.84c1.79.51,3.74-.35,4.53-2.1,0,0,0,0,0,0l36.13,12.45-62.47,49.27ZM-18.31,197.75c.06-.06.12-.12.17-.18l39.37,38.37c-.2.25-.38.52-.51.83-.36.8-.42,1.65-.24,2.44l-10.56,3.51-28.23-44.97ZM93.61,287.64l13.53,9.53c-.06.11-.12.21-.17.33-.32.71-.41,1.47-.29,2.18l-11.92,3.07-66.33-61.01,65.17,45.89ZM107.55,296.6l-47.33-33.33-32.69-23.02c.06-.11.12-.21.17-.33.29-.63.38-1.31.32-1.95l71.03-13.76,10.51,71.17c-.77.19-1.48.61-2,1.23ZM20.71,239.88c.37.83,1.03,1.54,1.92,1.95.87.39,1.8.43,2.65.18l26.99,68.18L10.31,243.33l10.4-3.46ZM55.58,310.14c-.87-.39-1.8-.43-2.65-.18l-27-68.2c.3-.15.58-.34.83-.57l67.18,61.79-36.35,9.36c-.34-.94-1.04-1.75-2.02-2.19ZM57.78,313.01l36.79-9.48,13.01,11.97c-.17.23-.32.47-.44.74-.14.31-.23.62-.28.94l-49.03-3.63c0-.18-.02-.36-.05-.54ZM110.23,314.02c-.81.08-1.57.42-2.18.96l-12.67-11.66,11.48-2.96c.34.94,1.04,1.75,2.02,2.19.41.18.83.29,1.26.32l.1,11.13ZM113.9,297.42l41.58-24.95,10.62,20.19c-.59.38-1.09.93-1.4,1.63-.21.47-.32.95-.34,1.44l-50.13,2.79c-.06-.38-.17-.75-.33-1.09ZM220.28,234.97c.25.2.52.37.82.51.59.26,1.2.37,1.8.33l10.68,50.76-61.67,8.43c-.16-.68-.5-1.31-.99-1.81l49.36-58.22ZM508.45,294.49l23.09,33.49c-.46.37-.85.84-1.11,1.42-.13.28-.21.57-.27.86l-14.72.2-7.62-35.66c.22-.08.43-.19.63-.31ZM668.16,243.7c-.34,1.18-.09,2.42.61,3.36l-18.8,17.11-29.35-37.75c.3-.31.56-.68.75-1.09l46.79,18.37ZM620.08,226.88l29.37,37.77-58.49,53.22c-.29-.26-.62-.49-1-.66-.04-.02-.09-.03-.13-.05l27.35-89.65c1.02.19,2.07-.04,2.9-.62ZM249.66,350.3c-.16-.07-.32-.13-.49-.18l12.57-63.3c1.08.11,2.16-.24,2.96-.97l35.19,32.26-48.87,33.23c-.36-.44-.82-.8-1.37-1.05ZM265.18,285.33c.17-.22.32-.47.44-.73.12-.28.21-.56.27-.84l72.32,7.3c-.06.34-.07.69-.03,1.03l-37.68,25.63-35.32-32.38ZM338.34,292.83c.15.47.39.91.71,1.29l-13.01,38.19-1.26,3.7c-1.22-.3-2.49.03-3.41.83l-20.33-18.64,37.31-25.37ZM325.45,336.24s0,0,0,0l1.25-3.68,12.91-37.89c.24.19.51.36.8.49.48.22.99.33,1.49.34l11.93,30.9-26.62,11.45c-.39-.68-.98-1.26-1.75-1.61ZM251.43,351.94l49.01-33.33,20.44,18.74c-.19.24-.36.5-.49.79-.27.6-.38,1.24-.33,1.86l-68.3,12.73c-.08-.28-.19-.55-.33-.8ZM380.46,397.62l-53.64-55.46c.21-.26.39-.54.54-.86.42-.92.43-1.92.13-2.81l26.59-11.44,27.08,70.12c-.24.12-.48.27-.69.44ZM354.72,326.77l30.93-13.31c.39.62.95,1.14,1.67,1.47.28.13.57.21.86.27l-3.3,49.54-2.14,32.05c-.32,0-.64.05-.94.14l-27.09-70.15ZM551.3,495.95l-18.87-29.59-11.66-18.29c.48-.37.87-.86,1.14-1.44.52-1.16.42-2.43-.16-3.46l15.53-10.81,14.56,63.35c-.18.06-.36.14-.53.23ZM484.93,334.42l38.91,46.97c-.32.32-.59.69-.79,1.13-.34.75-.41,1.55-.27,2.29l-20.59,7.29-17.95-57.31c.24-.1.47-.22.68-.37ZM522.99,385.49c.35.89,1.04,1.66,1.98,2.09.24.11.48.19.72.24l-7.12,53.43c-.32-.01-.64.02-.95.08l-15.21-48.56,20.57-7.29ZM521.34,442.6c-.36-.42-.81-.78-1.34-1.02-.24-.11-.48-.19-.72-.24l2.55-19.08,4.59-34.34c.21,0,.43,0,.64-.03l10.05,43.76-15.76,10.97ZM527.74,387.71c.98-.32,1.83-1.04,2.29-2.05.19-.41.29-.84.32-1.26l72.98-.69c.05.53.22,1.03.48,1.49l-66.07,45.99-9.99-43.48ZM603.64,381.75c-.19.41-.29.83-.32,1.26l-72.98.69c-.08-.77-.39-1.5-.89-2.09l30.68-31.46,43.69,31.24c-.07.11-.13.23-.18.35ZM528.95,381.12c-.25-.2-.52-.38-.83-.51-.09-.04-.18-.08-.28-.11l5.73-45.72c1.22.11,2.43-.37,3.23-1.3l22.74,16.26-30.61,31.38ZM532.34,334.46c.18.08.36.14.54.19l-5.73,45.67c-.35-.06-.71-.06-1.06-.02l-10.5-49.13,14.5-.2c0,1.46.83,2.85,2.24,3.49ZM525.4,380.44c-.3.09-.58.22-.85.38l-39.07-46.86c.31-.32.58-.69.78-1.12.19-.42.29-.85.32-1.28l28.29-.39,10.53,49.27ZM392.39,313.02c.02-.05.04-.11.06-.16l51.22,10.64,35.31,7.33c-.09.81.08,1.61.47,2.31l-55.96,38.82-32.62-57.25c.64-.39,1.18-.96,1.51-1.7ZM481.53,334.88c.68.23,1.38.26,2.05.12l17.96,57.33-51.97,18.4c-.33-.7-.86-1.31-1.58-1.72l33.54-74.14ZM449.8,411.4l51.95-18.4,15.2,48.53c-.76.32-1.42.88-1.85,1.63l-65.39-29.58c.25-.72.27-1.48.09-2.18ZM516.85,448.54c1.11.5,2.32.43,3.32-.09l8.5,13.33,22.03,34.55c-.12.1-.24.2-.35.32l-49.42-40.18,13.77-12.31c-.42,1.75.44,3.61,2.14,4.38ZM554.3,495.71c-.59-.2-1.2-.24-1.79-.15l-14.62-63.62,66.31-46.15c.28.33.61.61.99.84l-50.9,109.08ZM604.24,380.82l-43.6-31.18,25.35-25.99c.25.2.52.38.83.51.76.34,1.57.41,2.33.26l16.56,55.36c-.56.22-1.06.58-1.46,1.04ZM585.47,323.16l-25.42,26.07-22.83-16.33c.07-.11.13-.23.18-.35.28-.63.38-1.29.32-1.94l46.99-8.88c.15.52.41,1.01.76,1.42ZM507.15,294.99l7.58,35.47-28.15.39c-.11-1.05-.66-2.03-1.54-2.68l20.04-33.37c.68.26,1.39.31,2.06.19ZM504.44,294.5l-20.01,33.32s-.05-.03-.08-.04c-1.92-.87-4.19-.02-5.06,1.91-.07.15-.12.3-.17.46l-78.98-16.41-7.49-1.56c.05-.26.07-.51.07-.77l110.08-19c.27.85.84,1.6,1.64,2.09ZM385.34,312.83l-30.87,13.28-11.84-30.67c1.15-.2,2.19-.92,2.75-2.03l39.8,17.16c-.18.77-.11,1.55.16,2.25ZM260.57,286.51c.16.07.32.13.49.18l-12.57,63.3c-.28-.03-.56-.03-.83,0l-13.22-62.82,24-3.28c.26,1.12,1.02,2.11,2.14,2.62ZM171.67,297.44c.26-.57.36-1.16.33-1.74l61.72-8.43,13.23,62.87c-.67.21-1.27.59-1.75,1.13l-73.74-53.45c.07-.12.14-.24.19-.37ZM251.8,354.69c.1-.42.13-.84.09-1.26l68.29-12.73c.1.39.27.76.49,1.1l-32.31,25.49-36.56-12.6ZM321.1,342.36c.33.35.73.64,1.19.85,1.38.62,2.93.36,4.02-.55l53.63,55.45c-.16.18-.3.38-.42.6l-90.38-31.14,31.96-25.2ZM384.43,397.11c-.32-.14-.64-.24-.97-.29l5.43-81.56c.46,0,.92-.08,1.35-.24l32.68,57.34-37.14,25.77c-.36-.42-.81-.78-1.35-1.03ZM423.85,372.58l56.01-38.86c.28.34.63.63,1.03.86l-33.54,74.14c-.95-.33-1.96-.26-2.82.13l-20.67-36.28ZM449.42,414.23l64.88,29.35-13.91,12.44-51.11-41.56c.05-.08.1-.15.15-.24ZM549.91,497.21c-.12.17-.22.35-.31.55-.09.2-.16.4-.21.6l-80.24-13.45,31.25-27.95,49.5,40.25ZM555.6,496.45c-.16-.14-.33-.26-.51-.38l-.07-.25,50.82-108.91c.81.29,1.67.29,2.44.04l17.87,42.38-70.55,67.11ZM670.76,392.25l-35.55,28.89c-.32-.33-.71-.61-1.15-.81-.29-.13-.58-.22-.87-.27l3.1-33.41,33.84,3.44c0,.77.22,1.52.65,2.16ZM632.48,419.99c-.6,0-1.19.14-1.72.41l-21.31-34.03c.49-.37.89-.87,1.16-1.46.12-.27.21-.56.27-.84l24.7,2.51-3.1,33.41ZM610.95,383.36c0-1.04-.41-2.05-1.16-2.78l28.1-34.98c.21.15.43.28.67.39.25.11.5.19.76.25l-3.67,39.63-24.69-2.51ZM637.35,345.13l-24.31,30.26,23.37-33.77c-.3,1.26.07,2.58.94,3.51ZM609,380c-.1-.05-.2-.11-.3-.15-.76-.34-1.57-.41-2.33-.26l-16.56-55.36c.88-.35,1.63-1.03,2.05-1.97.37-.82.43-1.71.22-2.52l75.13-26.7c.25.5.61.94,1.07,1.29l-59.28,85.66ZM591.85,319.08c-.11-.24-.25-.48-.41-.69l58.45-53.18,18.13,23.31c-.36.34-.66.75-.88,1.22-.39.87-.43,1.8-.18,2.64l-75.11,26.69ZM668.58,288.09l-18.17-23.36,18.84-17.14c.29.26.62.49,1,.66.37.17.75.27,1.13.31l-.92,38.94c-.67.03-1.32.23-1.88.59ZM673.41,241.28c-1.87-.85-4.07-.06-4.99,1.76l-46.6-18.3,112.21,22.39-58.39-2.56c-.07-1.39-.89-2.69-2.24-3.3ZM735.14,246.12c-.07.16-.13.32-.18.49l-113.25-22.6c.04-.57-.05-1.14-.26-1.67l45.26-22.13,68.56,45.67c-.04.08-.09.16-.12.24ZM616.32,227.23c.06.03.13.05.19.07l-27.35,89.64c-1.13-.23-2.3.06-3.17.77l-22.85-23.47,52.7-67.28c.15.1.32.19.49.27ZM585.48,318.2c-.23.27-.42.57-.58.9-.28.63-.38,1.29-.32,1.94l-46.99,8.88c-.19-.65-.55-1.25-1.05-1.72l26.15-33.39,22.78,23.4ZM535.99,327.76c-.16-.1-.32-.19-.49-.27-.77-.35-1.58-.42-2.35-.26l-27.26-89.23c.34-.14.66-.33.95-.56l55.36,56.85-26.21,33.47ZM505.21,238.21l27.26,89.23c-.11.05-.23.1-.33.16l-23.12-33.53c.37-.34.68-.76.91-1.25.87-1.92.02-4.19-1.91-5.06-.44-.2-.9-.3-1.36-.33l-1.74-49.17c.1-.01.19-.03.29-.05ZM502.65,291.72l-110,18.99c-.23-1.17-1-2.22-2.17-2.75-.53-.24-1.08-.34-1.62-.34l-6.14-58.69c1.14-.23,2.16-.97,2.7-2.1l117.4,43.16c-.2.57-.25,1.16-.18,1.73ZM380.4,248.67c.53.24,1.08.34,1.62.34l6,57.4-13-52.6,4.74-5.51c.2.14.41.26.64.37ZM387.65,307.84c-.95.33-1.78,1.04-2.23,2.03,0,.01,0,.02-.01.03l-39.76-17.14c.4-1.34.03-2.77-.91-3.74l29.73-34.55,13.19,53.37ZM344.19,288.56c-.2-.14-.41-.26-.64-.37-.2-.09-.4-.16-.6-.21l15.64-94.26c.28.02.57.01.85-.03l14.81,59.93-30.06,34.93ZM339.24,289.01c-.3.31-.56.67-.74,1.09-.04.09-.07.18-.1.26l-72.43-7.31c0-.88-.29-1.73-.84-2.41l36.73-35.36,37.38,43.73ZM259.53,280.23c-.36.33-.66.74-.87,1.21-.26.57-.36,1.16-.33,1.74l-24.04,3.29-10.69-50.78c.36-.09.71-.23,1.02-.42l34.91,44.96ZM219.77,234.48l-49.39,58.25c-.19-.13-.4-.25-.62-.35-1-.45-2.09-.44-3.03-.05l-10.64-20.22,63.38-38.03c.09.14.19.27.3.4ZM155.15,271.85l-41.61,24.97c-.38-.51-.88-.94-1.51-1.22-.15-.07-.3-.12-.45-.17l12.27-58.48,3.09-14.73c.67.07,1.33-.03,1.94-.29l26.27,49.92ZM125.78,221.9c.15.07.31.12.47.17l-15.36,73.2c-.22-.02-.43-.03-.64-.02l-10.52-71.2,23.94-4.64c.29,1.06,1.03,1.99,2.11,2.48ZM98.94,223.5l-71.06,13.77c-.18-.6-.5-1.16-.95-1.61l60.78-72.09c.3.29.66.54,1.06.72.48.22.98.33,1.47.34l8.7,58.87ZM86.64,161.75c.12.46.32.9.6,1.29l-60.85,72.17c-.19-.13-.39-.25-.61-.35-.54-.25-1.11-.35-1.67-.34l-6.04-51.6,68.56-21.18ZM23.41,234.61c-.62.13-1.2.41-1.68.83l-39.43-38.43c.1-.15.19-.31.26-.48.4-.88.43-1.83.17-2.69l34.66-10.71,6.02,51.47ZM-18.87,198.18l28.1,44.77-26.56,8.83c-.37-.83-1.03-1.54-1.92-1.95-.4-.18-.81-.28-1.22-.32l.07-50.78c.54-.08,1.06-.27,1.52-.56ZM-17.64,255.43c.11-.17.21-.35.3-.54.36-.8.42-1.65.24-2.44l26.72-8.89,42.06,67.02c-.15.11-.29.24-.42.38l-68.9-55.53ZM114.05,316.13c-.38-.77-1.01-1.42-1.86-1.8-.41-.18-.83-.29-1.26-.32l-.1-11.13c1.31-.13,2.51-.94,3.1-2.22.21-.47.32-.95.34-1.44l50.13-2.79c.02.16.05.31.1.46l-50.45,19.24ZM170.04,299.2c.38-.21.73-.49,1.03-.82l73.73,53.45c-.07.12-.14.24-.19.37-.85,1.88-.05,4.08,1.78,4.99l-22.88,58.84c-.76-.22-1.54-.19-2.25.05l-51.21-116.89ZM226.18,418.87c-.1-.44-.27-.85-.52-1.23l62.83-49.55,89.35,30.79-151.66,20ZM386.65,400.94c.07-.78-.1-1.56-.48-2.23l37.09-25.73,20.64,36.23c-.54.38-1,.9-1.29,1.55-.08.18-.14.35-.19.53l-55.77-10.35ZM447.55,415.87c.48-.2.91-.49,1.28-.86l51.03,41.49-31.31,28-21-68.63ZM569.61,554.24c-.61.22-1.16.6-1.59,1.1l-98.19-69.61,79.44,13.32c-.11,1.55.73,3.08,2.23,3.76,1.54.7,3.29.29,4.38-.89l13.72,52.31ZM650.99,486.43l-24-56.91,2.98-2.83c.28.24.59.45.94.6.76.34,1.57.41,2.34.26l17.75,58.88ZM671.44,387.22c-.41.35-.76.8-.99,1.32-.12.27-.21.56-.27.84l-33.84-3.44,3.67-39.61c.72.02,1.42-.16,2.03-.52l29.4,41.41ZM641.64,339c-1.24-.53-2.61-.36-3.65.35l26.66-38.52-23,38.17ZM739.08,243.9c-1.3-.16-2.6.37-3.43,1.39l-68.21-45.44,87.98-43.01c.39.64.96,1.17,1.69,1.49.14.06.28.12.43.16l-18.46,85.41ZM754.96,155.66c.04.18.09.37.16.54l-88.35,43.19-39.13-26.07c.03-.06.07-.12.1-.19.28-.62.38-1.27.32-1.9l126.9-15.58ZM623.95,175.37c1.26.1,2.51-.44,3.3-1.45l38.77,25.83-44.9,21.95c-.39-.61-.95-1.12-1.65-1.44-.23-.1-.46-.18-.7-.24l5.18-44.66ZM614.12,224.35c.13.83.53,1.6,1.15,2.18l-52.64,67.21-55.3-56.78c.23-.27.42-.57.58-.9.23-.52.34-1.06.34-1.59l105.87-10.12ZM378.49,243.61c-.66,1.47-.32,3.14.73,4.23l-4.41,5.13-14.5-58.69,19.87,47.54c-.72.38-1.33,1-1.69,1.8ZM355.32,191.32c.14.35.33.68.57.98l-53.97,51.96-23.44-27.43c.3-.31.56-.67.74-1.09.34-.75.41-1.55.27-2.3l75.84-22.12ZM272.24,215.71c.37.83,1.02,1.53,1.92,1.94.16.07.33.13.49.18l-12.12,61.4c-.86-.09-1.73.12-2.44.58l-34.9-44.94c.4-.35.73-.78.96-1.29.36-.8.42-1.66.23-2.45l45.85-15.41ZM218.86,231.73c-.04.59.06,1.18.28,1.72l-63.39,38.04-26.26-49.9c.57-.38,1.04-.92,1.35-1.59.11-.25.2-.51.25-.77l87.77,12.5ZM125.05,215.37c-.49.37-.9.87-1.18,1.47-.28.61-.38,1.26-.33,1.89l-23.92,4.63-8.68-58.78c.38-.06.76-.18,1.1-.35l33,51.14ZM11.12,146.34c.18.12.37.23.57.32.48.22.98.33,1.48.34l4.14,35.42-34.84,10.76c-.25-.49-.61-.92-1.07-1.27l29.72-45.58Z"/>
      </g>
    </g>
    <text class="cls-3" transform="translate(327.39 113.4)"><tspan class="cls-6" x="0" y="0">F</tspan><tspan class="cls-9" x="17.06" y="0">r</tspan><tspan x="28.79" y="0">o</tspan><tspan class="cls-7" x="49.1" y="0">n</tspan><tspan class="cls-4" x="69.49" y="0">t</tspan><tspan x="81.51" y="0">end</tspan></text>
  </g>
</svg>